<?xml version="1.0" encoding="utf-8"?>
<!-- Generator: Adobe Illustrator 23.0.6, SVG Export Plug-In . SVG Version: 6.00 Build 0)  -->
<svg version="1.1" xmlns="http://www.w3.org/2000/svg" xmlns:xlink="http://www.w3.org/1999/xlink" x="0px" y="0px"
	 viewBox="0 0 500 500" style="enable-background:new 0 0 500 500;" xml:space="preserve">
<style type="text/css">
	.st0{fill:#FFFFFF;stroke:#FFFFFF;stroke-width:10;stroke-miterlimit:10;}
	.st1{fill:#522F17;}
	.st2{fill:#FFE7BA;}
	.st3{fill:#92E8BA;}
	.st4{fill:#0A8041;}
</style>
<g id="border">
	<g>
		<path class="st0" d="M249.327,259.845c59.496,0,107.727-48.228,107.732-107.723c0-0.003,0-0.006,0-0.009
			c0-24.172-7.961-46.484-21.403-64.458c-19.646-26.27-51.002-43.275-86.33-43.275c-59.499,0-107.732,48.233-107.732,107.732
			S189.828,259.845,249.327,259.845z"/>
		<path class="st0" d="M249.327,267.845c-14.467-0.002-28.786-2.918-42.102-8.574c-31.47,35.565-54.704,108.667-62.602,196.967
			h209.174v-2.637c-8.181-87.318-31.382-159.318-62.621-194.336C277.94,264.89,263.71,267.808,249.327,267.845z"/>
	</g>
</g>
<g id="object" xmlns:cc="http://creativecommons.org/ns#" xmlns:dc="http://purl.org/dc/elements/1.1/" xmlns:inkscape="http://www.inkscape.org/namespaces/inkscape" xmlns:rdf="http://www.w3.org/1999/02/22-rdf-syntax-ns#" xmlns:sodipodi="http://sodipodi.sourceforge.net/DTD/sodipodi-0.dtd" xmlns:svg="http://www.w3.org/2000/svg">
	<g>
		<path class="st1" d="M250.028,44.071C190.971,44.098,142.944,91.666,142.35,150.72c12.046,2.568,24.578,3.887,37.186,3.916
			c43.803-0.043,84.498-15.608,107.738-41.209c12.888,22.336,38.642,39.171,70.113,45.832c0.21-2.48,0.335-4.966,0.373-7.455
			C357.76,92.305,309.527,44.071,250.028,44.071z"/>
		<path class="st2" d="M142.295,151.804c0,59.499,48.233,107.732,107.732,107.732c59.496,0,107.727-48.228,107.732-107.723
			c-0.038,2.485-0.163,4.969-0.373,7.446c-31.471-6.661-57.226-23.496-70.113-45.832c-23.241,25.601-63.936,41.166-107.738,41.209
			c-12.608-0.029-25.14-1.348-37.186-3.916"/>
		<path inkscape:connector-curvature="0" class="st3" d="M290.523,259.593c-13.237,5.625-27.467,8.542-41.85,8.58
			c-14.467-0.002-28.786-2.918-42.102-8.574c-31.47,35.565-54.704,108.667-62.602,196.967h209.174v-2.637
			C344.963,366.611,321.762,294.611,290.523,259.593z"/>
		<path class="st4" d="M277.972,264.031c-3.441,0.983-6.928,1.793-10.448,2.428c5.746,7.695,9.924,18.736,11.694,31.44v0.52h-61.323
			c1.716-12.899,5.909-24.136,11.718-31.951c-3.526-0.634-7.02-1.444-10.468-2.427c-19.038,36.984-33.023,107.737-37.904,192.525
			h134.632v-2.637C310.819,370.133,296.86,300.465,277.972,264.031z"/>
	</g>
</g>
</svg>
