<?xml version="1.0" encoding="utf-8"?>
<!-- Generator: Adobe Illustrator 23.0.6, SVG Export Plug-In . SVG Version: 6.00 Build 0)  -->
<svg version="1.1" xmlns="http://www.w3.org/2000/svg" xmlns:xlink="http://www.w3.org/1999/xlink" x="0px" y="0px"
	 viewBox="0 0 500 500" style="enable-background:new 0 0 500 500;" xml:space="preserve">
<style type="text/css">
	.st0{fill:#E6CC43;}
	.st1{fill:#C99542;}
	.st2{fill:#FFFFFF;stroke:#FFFFFF;stroke-width:10;stroke-miterlimit:10;}
	.st3{fill:#454545;}
	.st4{fill:#858585;}
	.st5{fill:#9E9E9E;}
</style>
<g id="border">
	<g>
		<rect x="65.455" y="154.319" class="st0" width="369.091" height="236.973"/>
		<g>
			<polygon class="st1" points="66.62,154.319 66.777,154.319 66.62,154.281 			"/>
			<polygon class="st1" points="176.718,108.707 77.845,108.707 66.777,154.319 176.718,154.319 176.718,154.281 176.875,154.319 
				187.944,108.707 			"/>
		</g>
	</g>
	<polygon class="st2" points="176.875,154.32 176.718,154.32 176.718,154.281 176.875,154.32 187.944,108.707 176.718,108.707 
		77.845,108.707 66.777,154.32 66.62,154.281 66.62,154.32 65.455,154.32 65.455,391.293 434.545,391.293 434.545,154.32 	"/>
</g>
<g id="object" xmlns:cc="http://creativecommons.org/ns#" xmlns:dc="http://purl.org/dc/elements/1.1/" xmlns:inkscape="http://www.inkscape.org/namespaces/inkscape" xmlns:rdf="http://www.w3.org/1999/02/22-rdf-syntax-ns#" xmlns:sodipodi="http://sodipodi.sourceforge.net/DTD/sodipodi-0.dtd" xmlns:svg="http://www.w3.org/2000/svg">
	<rect x="65.455" y="154.319" class="st0" width="369.091" height="236.973"/>
	<polygon class="st1" points="176.718,108.707 77.845,108.707 66.777,154.319 176.718,154.319 176.718,154.281 176.875,154.319 
		187.944,108.707 	"/>
	<polygon class="st3" points="189.578,378.189 189.578,366.358 196.978,366.358 196.978,348.901 188.413,348.901 188.413,337.07 
		196.978,337.07 196.978,319.613 187.83,319.613 187.83,307.782 196.978,307.782 196.978,290.326 186.664,290.326 186.664,278.494 
		196.978,278.494 196.978,261.038 188.704,261.038 188.704,249.206 196.978,249.206 196.978,231.75 187.538,231.75 187.538,219.919 
		196.978,219.919 196.978,202.462 186.955,202.462 186.955,190.631 196.978,190.631 196.978,173.174 185.789,173.174 
		185.789,161.343 196.978,161.343 196.978,154.281 178.973,154.281 178.973,175.897 183.458,175.897 183.458,187.729 
		178.973,187.729 178.973,205.185 184.624,205.185 184.624,217.017 178.973,217.017 178.973,234.473 185.207,234.473 
		185.207,246.304 178.973,246.304 178.973,263.761 186.373,263.761 186.373,275.592 178.973,275.592 178.973,293.049 
		184.332,293.049 184.332,304.88 178.973,304.88 178.973,322.336 185.498,322.336 185.498,334.168 178.973,334.168 178.973,351.624 
		186.081,351.624 186.081,363.456 178.973,363.456 178.973,380.912 187.247,380.912 187.247,391.293 196.978,391.293 
		196.978,378.189 	"/>
	<path class="st4" d="M187.975,159.602c-6.691,0-12.114,27.176-12.114,42.184c0,15.009,5.424,15.058,12.114,15.058
		s12.114-0.049,12.114-15.058C200.09,186.777,194.666,159.602,187.975,159.602z M187.975,212.336c-4.626,0-8.376-3.431-8.376-7.662
		c0-4.232,3.75-7.662,8.376-7.662c4.626,0,8.376,3.431,8.376,7.662C196.351,208.906,192.601,212.336,187.975,212.336z"/>
	<path class="st5" d="M188.918,170.87h-1.886c-0.948,0-1.716-0.768-1.716-1.716v-13.156c0-0.948,0.768-1.716,1.716-1.716h1.886
		c0.948,0,1.716,0.768,1.716,1.716v13.156C190.634,170.101,189.866,170.87,188.918,170.87z"/>
</g>
</svg>
