<?xml version="1.0" encoding="utf-8"?>
<!-- Generator: Adobe Illustrator 23.0.6, SVG Export Plug-In . SVG Version: 6.00 Build 0)  -->
<svg version="1.1" xmlns="http://www.w3.org/2000/svg" xmlns:xlink="http://www.w3.org/1999/xlink" x="0px" y="0px"
	 viewBox="0 0 500 500" style="enable-background:new 0 0 500 500;" xml:space="preserve">
<style type="text/css">
	.st0{fill:#E6CC43;}
	.st1{fill:#C99542;}
	.st2{fill:#FFFFFF;stroke:#FFFFFF;stroke-width:10;stroke-miterlimit:10;}
</style>
<g id="border">
	<g>
		<rect x="65.455" y="154.319" class="st0" width="369.091" height="236.973"/>
		<g>
			<polygon class="st1" points="66.62,154.319 66.777,154.319 66.62,154.281 			"/>
			<polygon class="st1" points="176.718,108.707 77.845,108.707 66.777,154.319 176.718,154.319 176.718,154.281 176.875,154.319 
				187.944,108.707 			"/>
		</g>
	</g>
	<polygon class="st2" points="176.875,154.32 176.718,154.32 176.718,154.281 176.875,154.32 187.944,108.707 176.718,108.707 
		77.845,108.707 66.777,154.32 66.62,154.281 66.62,154.32 65.455,154.32 65.455,391.293 434.545,391.293 434.545,154.32 	"/>
</g>
<g id="object" xmlns:cc="http://creativecommons.org/ns#" xmlns:dc="http://purl.org/dc/elements/1.1/" xmlns:inkscape="http://www.inkscape.org/namespaces/inkscape" xmlns:rdf="http://www.w3.org/1999/02/22-rdf-syntax-ns#" xmlns:sodipodi="http://sodipodi.sourceforge.net/DTD/sodipodi-0.dtd" xmlns:svg="http://www.w3.org/2000/svg">
	<g>
		<rect x="65.455" y="154.319" class="st0" width="369.091" height="236.973"/>
		<polygon class="st1" points="176.718,108.707 77.845,108.707 66.777,154.319 176.718,154.319 176.718,154.281 176.875,154.319 
			187.944,108.707 		"/>
	</g>
</g>
</svg>
