<?xml version="1.0" encoding="utf-8"?>
<!-- Generator: Adobe Illustrator 23.0.6, SVG Export Plug-In . SVG Version: 6.00 Build 0)  -->
<svg version="1.1" xmlns="http://www.w3.org/2000/svg" xmlns:xlink="http://www.w3.org/1999/xlink" x="0px" y="0px"
	 viewBox="0 0 500 500" style="enable-background:new 0 0 500 500;" xml:space="preserve">
<style type="text/css">
	.st0{fill:#FFFFFF;stroke:#FFFFFF;stroke-width:10;stroke-miterlimit:10;}
	.st1{fill:#856240;}
	.st2{fill:#ABE2FF;}
	.st3{fill:#90D683;}
	.st4{fill:#FFFFFF;}
	.st5{fill:#69AB5C;}
</style>
<g id="border">
	<rect x="69.681" y="119.045" class="st0" width="372.34" height="275.208"/>
</g>
<g id="object" xmlns:cc="http://creativecommons.org/ns#" xmlns:dc="http://purl.org/dc/elements/1.1/" xmlns:inkscape="http://www.inkscape.org/namespaces/inkscape" xmlns:rdf="http://www.w3.org/1999/02/22-rdf-syntax-ns#" xmlns:sodipodi="http://sodipodi.sourceforge.net/DTD/sodipodi-0.dtd" xmlns:svg="http://www.w3.org/2000/svg">
	<g>
		<rect x="69.681" y="119.045" class="st1" width="372.34" height="275.208"/>
		<rect x="84.574" y="130.053" class="st2" width="342.553" height="253.191"/>
		<path class="st3" d="M307.447,355.053c-89.437-50.715-129.787-89.362-129.787-89.362c-14.052-14.052-25.436-26.197-43.617-27.66
			c-18.398-1.48-35.868,8.951-49.468,22.244v122.969h285.547C353.532,377.725,332.532,369.277,307.447,355.053z"/>
		<path class="st4" d="M427.128,133.643c-4.302-1.091-8.891-1.95-13.707-2.531c-0.22-0.356-0.456-0.708-0.701-1.058H231.469
			c-2.641,4.309-4.121,9.076-4.121,14.097c0,16.992,16.818,31.122,39.021,34.112c-3.75,3.915-5.857,8.281-5.857,12.889
			c0,16.827,27.937,30.467,62.4,30.467c13.641,0,26.25-2.143,36.518-5.769c7.672,7.425,22.245,12.443,38.973,12.443
			c10.938,0,20.954-2.147,28.725-5.706V133.643z"/>
		<path class="st4" d="M219.873,189.05c0-5.455-9.182-9.877-20.509-9.877s-20.509,4.422-20.509,9.877s9.182,9.877,20.509,9.877
			c2.642,0,5.159-0.249,7.478-0.687c0.598,4.299,6.2,7.669,13.031,7.669c7.23,0,13.091-3.774,13.091-8.43
			C232.964,192.824,227.103,189.05,219.873,189.05z"/>
		<path class="st4" d="M111.655,135.685c0,11.809,21.295,21.382,47.564,21.382s47.564-9.573,47.564-21.382
			c0-1.95-0.592-3.837-1.68-5.632h-91.768C112.246,131.848,111.655,133.735,111.655,135.685z"/>
		<path class="st5" d="M407.447,362.5c-89.437-50.715-129.787-89.362-129.787-89.362c-14.052-14.052-25.436-26.197-43.617-27.66
			c-19.409-1.561-37.784,10.134-51.672,24.461c12.973,11.349,53.145,44.325,125.077,85.113
			c25.085,14.224,46.085,22.671,62.675,28.192h57.006V372.94C420.876,369.852,414.317,366.396,407.447,362.5z"/>
	</g>
</g>
</svg>
