<?xml version="1.0" encoding="utf-8"?>
<!-- Generator: Adobe Illustrator 23.0.6, SVG Export Plug-In . SVG Version: 6.00 Build 0)  -->
<svg version="1.1" xmlns="http://www.w3.org/2000/svg" xmlns:xlink="http://www.w3.org/1999/xlink" x="0px" y="0px"
	 viewBox="0 0 500 500" style="enable-background:new 0 0 500 500;" xml:space="preserve">
<style type="text/css">
	.st0{fill:#FFFFFF;stroke:#FFFFFF;stroke-width:10;stroke-miterlimit:10;}
	.st1{fill:#FFEB7B;}
	.st2{fill:#DB5679;}
	.st3{fill:#F2FF61;}
	.st4{fill:#FFA633;}
</style>
<g id="border">
	<rect x="69.681" y="119.045" class="st0" width="372.34" height="275.208"/>
</g>
<g id="object" xmlns:cc="http://creativecommons.org/ns#" xmlns:dc="http://purl.org/dc/elements/1.1/" xmlns:inkscape="http://www.inkscape.org/namespaces/inkscape" xmlns:rdf="http://www.w3.org/1999/02/22-rdf-syntax-ns#" xmlns:sodipodi="http://sodipodi.sourceforge.net/DTD/sodipodi-0.dtd" xmlns:svg="http://www.w3.org/2000/svg">
	<g>
		<rect x="69.681" y="119.045" class="st1" width="372.34" height="275.208"/>
		<rect x="84.574" y="130.053" class="st2" width="342.553" height="253.191"/>
		<circle class="st3" cx="188.777" cy="314.905" r="45.705"/>
		<path class="st4" d="M379.873,312.174c0.018-0.143,0.043-0.285,0.043-0.428c0-0.831-0.323-1.642-0.916-2.43l-50.305-164.662
			l-50.305,164.662c-0.593,0.787-0.916,1.599-0.916,2.43c0,0.144,0.024,0.286,0.043,0.428l-0.043,0.14h0.057
			c1.18,6.877,23.631,12.361,51.164,12.361s49.984-5.484,51.165-12.361h0.057L379.873,312.174z"/>
	</g>
</g>
</svg>
