<?xml version="1.0" encoding="utf-8"?>
<!-- Generator: Adobe Illustrator 23.0.6, SVG Export Plug-In . SVG Version: 6.00 Build 0)  -->
<svg version="1.1" xmlns="http://www.w3.org/2000/svg" xmlns:xlink="http://www.w3.org/1999/xlink" x="0px" y="0px"
	 viewBox="0 0 500 500" style="enable-background:new 0 0 500 500;" xml:space="preserve">
<style type="text/css">
	.st0{fill:#FFFFFF;stroke:#FFFFFF;stroke-width:10;stroke-miterlimit:10;}
	.st1{fill:#303030;}
</style>
<g id="border">
	<path class="st0" d="M423.9,99.2L423.5,72l-241.3,36.5l0.4,24.9h-0.2v185.4c-14.9-9-34.3-12.2-54-7.4
		c-36.2,8.8-59.4,41.6-51.7,73.1s43.3,50,79.6,41.2c30.1-7.3,51.2-31.2,53-57.2h0.2V174.9l188.2-28.5v138.2
		c-14.9-9-34.3-12.2-54-7.4c-36.2,8.8-59.4,41.6-51.7,73.1c7.7,31.6,43.3,50,79.6,41.2c30.1-7.3,51.2-31.2,53-57.2h0.2V99.2H423.9z"
		/>
</g>
<g id="object" xmlns:cc="http://creativecommons.org/ns#" xmlns:dc="http://purl.org/dc/elements/1.1/" xmlns:inkscape="http://www.inkscape.org/namespaces/inkscape" xmlns:rdf="http://www.w3.org/1999/02/22-rdf-syntax-ns#" xmlns:sodipodi="http://sodipodi.sourceforge.net/DTD/sodipodi-0.dtd" xmlns:svg="http://www.w3.org/2000/svg">
	<path class="st1" d="M423.9,99.2L423.5,72l-241.3,36.5l0.4,24.9h-0.2v185.4c-14.9-9-34.3-12.2-54-7.4
		c-36.2,8.8-59.4,41.6-51.7,73.1s43.3,50,79.6,41.2c30.1-7.3,51.2-31.2,53-57.2h0.2V174.9l188.2-28.5v138.2
		c-14.9-9-34.3-12.2-54-7.4c-36.2,8.8-59.4,41.6-51.7,73.1c7.7,31.6,43.3,50,79.6,41.2c30.1-7.3,51.2-31.2,53-57.2h0.2V99.2H423.9z"
		/>
</g>
</svg>
