<?xml version="1.0" encoding="utf-8"?>
<!-- Generator: Adobe Illustrator 23.0.6, SVG Export Plug-In . SVG Version: 6.00 Build 0)  -->
<svg version="1.1" xmlns="http://www.w3.org/2000/svg" xmlns:xlink="http://www.w3.org/1999/xlink" x="0px" y="0px"
	 viewBox="0 0 500 500" style="enable-background:new 0 0 500 500;" xml:space="preserve">
<style type="text/css">
	.st0{fill:#FFFFFF;stroke:#FFFFFF;stroke-width:10;stroke-miterlimit:10;}
	.st1{fill:#206494;}
	.st2{fill:#76D3E8;}
</style>
<g id="border">
	<path class="st0" d="M439.3,188.3c-19.7-32.9-39.1-46.2-51.3-51.5c0,0,0,0,0,0c0,0,0,0,0,0c-0.7-0.3-1.4-0.6-2-0.8
		c-0.1,0-0.1,0-0.2-0.1c-0.6-0.2-1.2-0.5-1.8-0.6c-0.1,0-0.1,0-0.2-0.1c-0.6-0.2-1.2-0.4-1.7-0.5c0,0,0,0-0.1,0
		c-0.5-0.2-1-0.3-1.5-0.4c-0.1,0-0.1,0-0.2,0c-0.4-0.1-0.9-0.2-1.3-0.3c0,0-0.1,0-0.1,0c-0.4-0.1-0.8-0.2-1.1-0.2c0,0,0,0,0,0
		c-0.3-0.1-0.6-0.1-0.9-0.2c0,0,0,0-0.1,0c-0.3,0-0.5-0.1-0.7-0.1c0,0,0,0,0,0c0,0,0,0,0,0c-0.6-0.1-0.9-0.1-0.9-0.1
		c-15.4-38.1-83.6-54.1-83.6-54.1l-42.9-1.4c-10.1,0.6-45.9,8.8-84.8,25.7v0c0,0,0,0,0,0c-1.6,0.7-3.3,1.4-4.9,2.2c0,0,0,0,0,0v0
		c-32.9,14.8-67.4,35.7-90.1,63.4v0c0,0,0,0,0,0c-1.4,1.6-2.7,3.3-3.9,5c0,0,0,0,0,0l0,0c-17,22.7-25.9,49.7-20.2,81.3
		c1.2,6.5,2.5,12.5,3.8,18.1l0,0c0,0,0,0,0,0c24,99.3,75.5,77.5,78,76.4c0,0,0,0,0,0c0.1,0,0.1,0,0.1,0s54.6,44,98.9,31.9
		c20.1-5.5,29.5-10.1,33.9-13.6h0c0,0,0,0,0,0c2.7-2.1,3.5-3.7,3.6-4.9c0,0,0,0,0,0c0-0.2,0-0.3,0-0.4v0l0,0
		c-0.1-0.8-0.4-1.2-0.4-1.2c20.1,9.4,31.2,13.2,44.8,26.5c13.7,13.3,34.3,33.9,34.3,33.9l18.6-5.1l-14.8-31.1c0,0,23.6,13,57.6-22.6
		c25.3-26.4,24.9-50.9,23-61.7h0c0,0,0,0,0,0c0-0.3-0.1-0.5-0.1-0.8c0-0.1,0-0.1,0-0.2c-0.2-0.8-0.3-1.5-0.5-2.1
		c0-0.1,0-0.2-0.1-0.2c0-0.2-0.1-0.3-0.1-0.5c0-0.1,0-0.1-0.1-0.2c-0.1-0.2-0.1-0.5-0.2-0.7c0-0.1,0-0.1-0.1-0.2
		c0-0.1-0.1-0.2-0.1-0.3c0,0,0,0,0,0h0c-0.1-0.4-0.2-0.7-0.2-0.7C455,273.1,471.6,242.4,439.3,188.3z"/>
</g>
<g id="object" xmlns:cc="http://creativecommons.org/ns#" xmlns:dc="http://purl.org/dc/elements/1.1/" xmlns:inkscape="http://www.inkscape.org/namespaces/inkscape" xmlns:rdf="http://www.w3.org/1999/02/22-rdf-syntax-ns#" xmlns:sodipodi="http://sodipodi.sourceforge.net/DTD/sodipodi-0.dtd" xmlns:svg="http://www.w3.org/2000/svg">
	<g>
		<path class="st1" d="M126.8,349.9c0,0-59.6,28.4-82-94.5s177.7-175.9,204-177.5l42.9,1.4c0,0,68.2,16,83.6,54.1
			c0,0,31.5,0.9,63.9,55s15.7,84.8-14.4,107.5c0,0,12.5,32-21.6,67.5s-57.6,22.6-57.6,22.6l14.8,31.1l-18.6,5.1
			c0,0-20.6-20.6-34.3-33.9c-13.7-13.3-24.7-17.1-44.8-26.5c0,0,7.2,8-37.1,20.1C181.4,393.9,126.8,349.9,126.8,349.9z"/>
		<path class="st2" d="M380.9,137.7c6.4,5.6,10.2,9,6.2,19.4c-2.2,5.6-15.6,8.7-26.6,9.7c-1.2-2.4-3.6-4-6.4-4
			c-3.9,0-7.1,3.2-7.1,7.1c0,3.9,3.2,7.1,7.1,7.1c3.1,0,5.8-2,6.7-4.8c10-0.9,27.7-3.9,31.3-13.2c4.4-11.4,0.9-17.3-4.1-22.2
			c-5.9-2.6-10-3.3-11.8-3.5C377.8,134.9,379.4,136.3,380.9,137.7z"/>
		<path class="st2" d="M426.4,301.7c-0.4-2.5-0.9-4.3-1.2-5.2c-5,0.4-19.5,0.6-30.2-1.9c-10.7-2.5-19.2-9.6-23.6-13.9
			c0.2-0.7,0.4-1.5,0.4-2.3c0-3.9-3.2-7.1-7.1-7.1c-3.9,0-7.1,3.2-7.1,7.1c0,3.9,3.2,7.1,7.1,7.1c1.2,0,2.3-0.3,3.2-0.8
			c4.9,4.7,14.1,12.2,25.9,15c7.4,1.8,16.6,2.3,23.7,2.3C421.2,302,424.5,301.8,426.4,301.7z"/>
		<path class="st2" d="M271.9,277.1c-3.2,0-5.9,2.2-6.8,5.1c-8.5,2.1-19.6,2.7-32.2-8c-6.5-5.5-12-18.2-14.1-23.5
			c2.2-1.2,3.8-3.5,3.8-6.2c0-3.9-3.2-7.1-7.1-7.1s-7.1,3.2-7.1,7.1c0,3.1,2.1,5.8,4.9,6.7c1.7,4.5,7.9,20.1,16.2,27.1
			c8.8,7.4,17,10,24.3,10.4c0,0.1-0.1,0.1-0.1,0.2c-3.5,7.3-6.9,14.1-22.6,14.6c-11.5,0.3-23.3-7.7-23.4-7.8l-3.1,4.4c0,0,0,0,0,0
			c-5,5.3-12.2,4.3-26.3-2.8c-5.5-2.8-9.4-7.6-11.7-11.5c1.1-1.2,1.8-2.9,1.8-4.6c0-3.9-3.2-7.1-7.1-7.1c-3.9,0-7.1,3.2-7.1,7.1
			c0,3.9,3.2,7.1,7.1,7.1c0.2,0,0.3,0,0.5-0.1c2.7,4.5,7.2,10.4,14.1,13.8c2.1,1.1,4.3,2.1,6.5,3.1c-0.8,8.4-8.1,21.5-23.2,33.5
			c-9.1,7.3-32.4,11.1-32.6,11.1l0,0.1c0.3-0.1,0.4-0.2,0.4-0.2s2.1,1.7,5.8,4.3c7.9-1.7,22.4-5.4,29.7-11.2
			c13.9-11,23.3-24.7,25-35.8c3.1,1,6.2,1.7,9.1,1.7c4.7,0,9-1.6,12.6-6c4.9,2.6,12.8,6,21,6c0.3,0,0.6,0,0.8,0
			c19-0.5,23.6-10,27.3-17.6c0.5-0.9,0.9-1.8,1.3-2.7c2.1-0.2,4.1-0.6,5.9-1c1.2,2.2,3.5,3.7,6.2,3.7c3.9,0,7.1-3.2,7.1-7.1
			C279,280.3,275.8,277.1,271.9,277.1z"/>
		<path class="st2" d="M241.9,355.8c-2.6-1.7-5.4-5.6-7.5-9.1c1-1.2,1.7-2.8,1.7-4.5c0-3.9-3.2-7.1-7.1-7.1c-3.9,0-7.1,3.2-7.1,7.1
			c0,3.9,3.2,7.1,7.1,7.1c0.2,0,0.4,0,0.7-0.1c2.3,3.9,5.6,8.7,9.3,11.1c6.8,4.5,14.3,7.3,20.7,7.9c3.1-2.4,3.6-4.2,3.6-5.3
			C258.1,363.2,250,361.2,241.9,355.8z"/>
		<path class="st2" d="M251.3,134.6c-3.9,0-7.1,3.2-7.1,7.1c0,1.2,0.3,2.4,0.9,3.4c-3.1,2-8,3.5-13.8,3.4
			c-4.6-0.1-20.1-1.7-24.6-19.4c4.6-3.2,7.7-7.5,8.4-11.6c0.1,0,0.2,0,0.3,0c3.9,0,7.1-3.2,7.1-7.1c0-3.9-3.2-7.1-7.1-7.1
			c-3.9,0-7.1,3.2-7.1,7.1c0,1.9,0.8,3.7,2,4.9l-0.5,0.1c0.4,3.4-4,9-11.2,11.9c-3.7,1.5-16.4,5.3-25.9-7.5
			c-4.5-6-7.6-13.7-8.6-16.4c-1.6,0.7-3.3,1.4-5,2.2c1.2,3.2,4.4,11,9.2,17.5c5.6,7.5,13.2,11.5,21.4,11.5c3.5,0,7.2-0.7,10.8-2.2
			c0.4-0.2,0.8-0.4,1.2-0.5c4,13.6,14.9,21.8,29.4,22c0.2,0,0.4,0,0.6,0c7.2,0,13.6-2.1,17.7-5.4c0.6,0.1,1.2,0.2,1.8,0.2
			c3.9,0,7.1-3.2,7.1-7.1C258.4,137.8,255.2,134.6,251.3,134.6z"/>
		<path class="st2" d="M102.8,192c-2.9,0-5.4,1.7-6.5,4.2c-4.6,0.7-10.4-0.1-17.3-7.3c-5.2-5.4-9.9-19.1-10.1-19.8
			c-1.4,1.6-2.7,3.3-3.9,5c1.9,4.9,5.7,13.9,10.1,18.5c7,7.3,13.3,9.2,18.5,9.2c0.9,0,1.7-0.1,2.5-0.2c1,2.7,3.6,4.6,6.6,4.6
			c3.9,0,7.1-3.2,7.1-7.1C109.9,195.2,106.7,192,102.8,192z"/>
		<path class="st2" d="M111.3,259c-3.9,0-7.1,3.2-7.1,7.1c0,0.4,0.1,0.8,0.1,1.2c-5.4,1.7-12.4,2.8-18.4-2.7
			c-3.6-3.3-5.1-9.1-5.8-12.7c1.6-1.3,2.6-3.3,2.6-5.5c0-3.9-3.2-7.1-7.1-7.1c-3.9,0-7.1,3.2-7.1,7.1c0,3.7,2.8,6.7,6.4,7
			c0.8,4,2.6,10.1,6.4,14.2c-2.7,5.3-7.2,13.1-16.9,13.1c-0.1,0-0.2,0-0.2,0c-7.2-0.1-15-7.5-15.1-7.6l-0.3,0.4
			c0.6,2.7,1.3,5.3,2,7.7c3.5,2.4,8.4,4.8,13.4,4.9c0.1,0,0.2,0,0.3,0c12.2,0,18.1-9.2,21.2-15.1c3.6,2.2,7.3,3,10.8,3
			c4.1,0,7.9-1.1,10.9-2.1c1.1,0.8,2.5,1.2,4,1.2c3.9,0,7.1-3.2,7.1-7.1C118.4,262.2,115.2,259,111.3,259z"/>
	</g>
</g>
</svg>
