<?xml version="1.0" encoding="utf-8"?>
<!-- Generator: Adobe Illustrator 23.0.6, SVG Export Plug-In . SVG Version: 6.00 Build 0)  -->
<svg version="1.1" xmlns="http://www.w3.org/2000/svg" xmlns:xlink="http://www.w3.org/1999/xlink" x="0px" y="0px"
	 viewBox="0 0 500 500" style="enable-background:new 0 0 500 500;" xml:space="preserve">
<style type="text/css">
	.st0{fill:#FFFFFF;stroke:#FFFFFF;stroke-width:10;}
	.st1{fill:#90BECB;}
	.st2{fill:#E7FDFF;}
	.st3{fill:#F3D663;}
	.st4{fill:#CC543D;}
	.st5{fill:#FFFFFF;}
</style>
<g id="border">
	<rect x="46.363" y="100.127" class="st0" width="407.273" height="299.745"/>
</g>
<g id="object" xmlns:cc="http://creativecommons.org/ns#" xmlns:dc="http://purl.org/dc/elements/1.1/" xmlns:inkscape="http://www.inkscape.org/namespaces/inkscape" xmlns:rdf="http://www.w3.org/1999/02/22-rdf-syntax-ns#" xmlns:sodipodi="http://sodipodi.sourceforge.net/DTD/sodipodi-0.dtd" xmlns:svg="http://www.w3.org/2000/svg">
	<g>
		<rect x="46.363" y="100.127" class="st1" width="407.273" height="299.745"/>
		<g>
			<path class="st2" d="M386.564,239.551h-270.39c-5.137,0-9.3-4.164-9.3-9.3v-98.879c0-5.137,4.164-9.3,9.3-9.3h270.39
				c5.137,0,9.3,4.164,9.3,9.3v98.879C395.865,235.387,391.701,239.551,386.564,239.551z"/>
		</g>
		<g>
			<path class="st2" d="M291.417,381.534h-86.061c-6.325,0-11.453-5.128-11.453-11.453v-93.297c0-6.325,5.128-11.453,11.453-11.453
				h86.061c6.325,0,11.453,5.128,11.453,11.453v93.297C302.87,376.407,297.742,381.534,291.417,381.534z"/>
		</g>
		<g>
			<path class="st3" d="M295.71,363.785c-1.457,0-2.65-2.25-2.65-5v-55.183c0-2.75-2.25-5-5-5h-1.66c-2.75,0-5,2.25-5,5v55.183
				c0,2.75-0.874,5-1.943,5s-1.943-2.25-1.943-5v-33.328c0-2.75-2.25-5-5-5h-1.66c-2.75,0-5,2.25-5,5v33.328c0,2.75-0.874,5-1.943,5
				s-1.943-2.25-1.943-5v-70.521c0-2.75-2.25-5-5-5h-1.66c-2.75,0-5,2.25-5,5v70.521c0,2.75-0.874,5-1.943,5
				c-1.069,0-1.943-2.25-1.943-5v-24.509c0-2.75-2.25-5-5-5h-1.66c-2.75,0-5,2.25-5,5v24.509c0,2.75-0.874,5-1.943,5
				c-1.069,0-1.943-2.25-1.943-5v-50.582c0-2.75-2.25-5-5-5h-1.66c-2.75,0-5,2.25-5,5v50.582c0,2.75-0.874,5-1.943,5
				c-1.069,0-1.943-2.25-1.943-5v-24.509c0-2.75-2.25-5-5-5h-1.66c-2.75,0-5,2.25-5,5v24.509c0,2.75-1.113,5-2.473,5
				s-2.473,1.639-2.473,3.643c0,2.003,1.113,3.643,2.473,3.643s4.723,0,7.473,0h1.66c2.75,0,5.874,0,6.943,0
				c1.069,0,4.193,0,6.943,0h1.66c2.75,0,5.874,0,6.943,0c1.069,0,4.193,0,6.943,0h1.66c2.75,0,5.874,0,6.943,0
				c1.069,0,4.193,0,6.943,0h1.66c2.75,0,5.874,0,6.943,0s4.193,0,6.943,0h1.66c2.75,0,5.874,0,6.943,0s4.193,0,6.943,0h1.66
				c2.75,0,6.192,0,7.65,0c1.457,0,2.65-1.639,2.65-3.643C298.36,365.424,297.167,363.785,295.71,363.785z"/>
		</g>
		<g>
			<circle class="st4" cx="127.881" cy="327.213" r="41.463"/>
			<path class="st3" d="M127.828,327.037l-39.858,11.939c5.938,20.029,26.149,32.803,47.224,29.013
				c22.611-4.067,37.65-25.662,33.59-48.233c-3.559-19.789-20.617-33.757-40.006-34.16L127.828,327.037z"/>
		</g>
		<circle class="st3" cx="336.447" cy="282.411" r="5.321"/>
		<circle class="st3" cx="336.447" cy="309.759" r="5.321"/>
		<circle class="st3" cx="336.447" cy="337.107" r="5.321"/>
		<circle class="st3" cx="336.447" cy="364.455" r="5.321"/>
		<g>
			<path class="st3" d="M412,282.304c0,2.692-6.3,4.895-14,4.895h-38.827c-7.7,0-14-2.203-14-4.895c0-2.692,6.3-4.895,14-4.895H398
				C405.7,277.409,412,279.612,412,282.304z"/>
		</g>
		<g>
			<path class="st3" d="M412,309.972c0,2.692-6.3,4.895-14,4.895h-38.827c-7.7,0-14-2.203-14-4.895c0-2.692,6.3-4.895,14-4.895H398
				C405.7,305.077,412,307.279,412,309.972z"/>
		</g>
		<g>
			<path class="st3" d="M412,337.213c0,2.692-6.3,4.895-14,4.895h-38.827c-7.7,0-14-2.203-14-4.895c0-2.692,6.3-4.895,14-4.895H398
				C405.7,332.318,412,334.521,412,337.213z"/>
		</g>
		<g>
			<path class="st3" d="M412,364.455c0,2.692-6.3,4.895-14,4.895h-38.827c-7.7,0-14-2.203-14-4.895c0-2.692,6.3-4.895,14-4.895H398
				C405.7,359.56,412,361.763,412,364.455z"/>
		</g>
		<path class="st3" d="M378.61,149.313c-0.273-3.629-3.297-6.491-6.996-6.491c-3.879,0-7.023,3.144-7.023,7.023
			c0,1.533,0.497,2.947,1.33,4.101l-24.252,19.06c-1.288-1.538-3.221-2.517-5.384-2.517c-2.468,0-4.635,1.276-5.888,3.201
			l-23.927-14.577c0.682-1.083,1.083-2.361,1.083-3.735c0-3.879-3.144-7.023-7.023-7.023s-7.023,3.144-7.023,7.023
			c0,2.089,0.917,3.959,2.365,5.246l-25.567,26.132c-1.243-1.112-2.878-1.795-4.677-1.795c-2.937,0-5.45,1.804-6.498,4.364
			l-22.528-9.154c0.457-0.932,0.721-1.976,0.721-3.084c0-3.879-3.144-7.023-7.023-7.023s-7.023,3.144-7.023,7.023
			c0,1.298,0.359,2.51,0.973,3.554l-23.597,13.418c-1.207-2.126-3.488-3.564-6.108-3.564c-2.892,0-5.375,1.75-6.451,4.247
			l-22.402-8.976c0.352-0.837,0.547-1.756,0.547-2.72c0-3.879-3.144-7.023-7.023-7.023s-7.023,3.144-7.023,7.023
			c0,2.042,0.877,3.876,2.269,5.159l-25.928,27.468c-1.239-1.096-2.863-1.767-4.647-1.767c-3.879,0-7.023,3.144-7.023,7.023
			c0,3.879,3.144,7.023,7.023,7.023c2.093,0,3.966-0.92,5.253-2.373c0.008,0.089,0.059,0.155,0.229,0.155l238.203,0.193v0.003
			h11.067v-76.617H378.61z"/>
		<circle class="st5" cx="123.858" cy="220.931" r="4.071"/>
		<circle class="st5" cx="159.028" cy="182.972" r="4.071"/>
		<circle class="st5" cx="194.533" cy="197.361" r="4.071"/>
		<circle class="st5" cx="230.215" cy="176.988" r="4.071"/>
		<circle class="st5" cx="265.442" cy="191.798" r="4.071"/>
		<circle class="st5" cx="300.698" cy="155.5" r="4.071"/>
		<circle class="st5" cx="336.189" cy="177.634" r="4.071"/>
		<circle class="st5" cx="371.563" cy="149.658" r="4.071"/>
	</g>
</g>
</svg>
