<?xml version="1.0" encoding="utf-8"?>
<!-- Generator: Adobe Illustrator 23.0.6, SVG Export Plug-In . SVG Version: 6.00 Build 0)  -->
<svg version="1.1" xmlns="http://www.w3.org/2000/svg" xmlns:xlink="http://www.w3.org/1999/xlink" x="0px" y="0px"
	 viewBox="0 0 500 500" style="enable-background:new 0 0 500 500;" xml:space="preserve">
<style type="text/css">
	.st0{fill:#FFFFFF;stroke:#FFFFFF;stroke-width:10;stroke-miterlimit:10;}
	.st1{fill:#84BFCD;}
</style>
<g id="border">
	<g>
		<path class="st0" d="M248.854,119.545c-32.291,0-59.857,19.332-65.37,45.752c-8.592-3.294-17.972-5.012-27.351-5.012
			c-38.377,0-69.452,27.494-69.452,61.433c0.072,0.787,0.072,1.503,0.143,2.219c-26.205,2.721-46.11,23.843-46.11,49.046
			c0,23.914,17.828,44.32,42.387,48.616c-0.072,0.859-0.143,1.79-0.143,2.721c0,16.826,16.898,30.501,37.661,30.501
			c9.022,0,17.685-2.577,24.487-7.303c14.105,19.618,37.518,31.432,62.65,31.432c15.322,0,30.215-4.439,42.817-12.601
			c11.026,9.021,25.489,14.105,40.525,14.105c19.905,0,38.521-8.807,49.547-23.556c6.587,2.148,13.604,3.222,20.549,3.222
			c34.583,0,62.65-25.132,62.65-56.206c-0.072-4.081-0.573-8.234-1.575-12.244c22.554-7.375,36.945-23.198,37.017-40.525
			c0-24.773-28.926-44.893-64.511-44.893c-0.143,0-0.286,0-0.43,0c0-0.215,0.072-0.501,0.072-0.716
			c0-26.707-26.205-48.258-58.425-48.258c-7.876,0-15.609,1.289-22.84,3.866C305.705,136.729,279.213,119.545,248.854,119.545
			L248.854,119.545z"/>
	</g>
</g>
<g id="object" xmlns:cc="http://creativecommons.org/ns#" xmlns:dc="http://purl.org/dc/elements/1.1/" xmlns:inkscape="http://www.inkscape.org/namespaces/inkscape" xmlns:rdf="http://www.w3.org/1999/02/22-rdf-syntax-ns#" xmlns:sodipodi="http://sodipodi.sourceforge.net/DTD/sodipodi-0.dtd" xmlns:svg="http://www.w3.org/2000/svg">
	<path class="st1" d="M248.854,119.545c-32.291,0-59.857,19.332-65.37,45.752c-8.592-3.294-17.972-5.012-27.351-5.012
		c-38.377,0-69.452,27.494-69.452,61.433c0.072,0.787,0.072,1.503,0.143,2.219c-26.205,2.721-46.11,23.843-46.11,49.046
		c0,23.914,17.828,44.32,42.387,48.616c-0.072,0.859-0.143,1.79-0.143,2.721c0,16.826,16.898,30.501,37.661,30.501
		c9.022,0,17.685-2.577,24.487-7.303c14.105,19.618,37.518,31.432,62.65,31.432c15.322,0,30.215-4.439,42.817-12.601
		c11.026,9.021,25.489,14.105,40.525,14.105c19.905,0,38.521-8.807,49.547-23.556c6.587,2.148,13.604,3.222,20.549,3.222
		c34.583,0,62.65-25.132,62.65-56.206c-0.072-4.081-0.573-8.234-1.575-12.244c22.554-7.375,36.945-23.198,37.017-40.525
		c0-24.773-28.926-44.893-64.511-44.893c-0.143,0-0.286,0-0.43,0c0-0.215,0.072-0.501,0.072-0.716
		c0-26.707-26.205-48.258-58.425-48.258c-7.876,0-15.609,1.289-22.84,3.866C305.705,136.729,279.213,119.545,248.854,119.545
		L248.854,119.545z"/>
</g>
</svg>
