<?xml version="1.0" encoding="utf-8"?>
<!-- Generator: Adobe Illustrator 23.0.6, SVG Export Plug-In . SVG Version: 6.00 Build 0)  -->
<svg version="1.1" xmlns="http://www.w3.org/2000/svg" xmlns:xlink="http://www.w3.org/1999/xlink" x="0px" y="0px"
	 viewBox="0 0 500 500" style="enable-background:new 0 0 500 500;" xml:space="preserve">
<style type="text/css">
	.st0{fill:#FFFFFF;stroke:#FFFFFF;stroke-width:10;stroke-miterlimit:10;}
	.st1{fill:#868686;}
</style>
<g id="border">
	<g>
		<path class="st0" d="M227.389,72.48v43.422c-20.074,2.705-39.293,9.823-56.306,20.857l-28.971-28.972l-34.097,34.097
			l27.904,27.904c-12.671,16.941-21.212,36.588-24.914,57.373H72.709v48.262h38.367c3.701,20.785,12.243,40.361,24.843,57.302
			l-27.904,27.904l34.097,34.168l28.9-28.901c17.013,11.034,36.303,18.081,56.377,20.714v43.493h20.358h1.851h20.358v-43.493
			c20.074-2.633,39.364-9.68,56.377-20.714l28.829,28.901l34.168-34.168l-27.904-27.904c12.599-16.941,21.07-36.516,24.843-57.302
			h38.367V227.16H386.34c-3.773-20.785-12.315-40.432-24.914-57.373l27.904-27.904l-34.168-34.097l-28.9,28.972
			c-17.013-11.034-36.232-18.152-56.306-20.857V72.48h-20.358h-1.851H227.389z M248.673,198.544c2.705,0,5.481,0.214,8.186,0.712
			c7.545,1.353,15.091,3.987,21.64,7.973c5.268,3.274,9.966,7.688,13.525,12.741c4.556,6.549,7.901,14.165,9.538,22.067
			c1.281,6.051,1.21,12.457,0,18.508c-1.637,7.83-4.983,15.518-9.538,22.067c-3.559,5.054-8.257,9.467-13.525,12.741
			c-6.549,3.987-14.094,6.62-21.64,7.973c-5.41,0.925-11.033,0.925-16.372,0c-7.545-1.353-15.091-3.986-21.64-7.973
			c-5.268-3.274-9.966-7.688-13.525-12.741c-4.556-6.549-7.901-14.237-9.538-22.067c-1.281-6.051-1.281-12.457,0-18.508
			c1.566-7.901,4.912-15.518,9.538-22.067c3.559-5.054,8.257-9.467,13.525-12.741c6.549-3.986,14.094-6.62,21.64-7.973
			C243.192,198.758,245.897,198.544,248.673,198.544L248.673,198.544z"/>
	</g>
</g>
<g id="object" xmlns:cc="http://creativecommons.org/ns#" xmlns:dc="http://purl.org/dc/elements/1.1/" xmlns:inkscape="http://www.inkscape.org/namespaces/inkscape" xmlns:rdf="http://www.w3.org/1999/02/22-rdf-syntax-ns#" xmlns:sodipodi="http://sodipodi.sourceforge.net/DTD/sodipodi-0.dtd" xmlns:svg="http://www.w3.org/2000/svg">
	<path class="st1" d="M227.389,72.48v43.422c-20.074,2.705-39.293,9.823-56.306,20.857l-28.971-28.972l-34.097,34.097l27.904,27.904
		c-12.671,16.941-21.212,36.588-24.914,57.373H72.709v48.262h38.367c3.701,20.785,12.243,40.361,24.843,57.302l-27.904,27.904
		l34.097,34.168l28.9-28.901c17.013,11.034,36.303,18.081,56.377,20.714v43.493h20.358h1.851h20.358v-43.493
		c20.074-2.633,39.364-9.68,56.377-20.714l28.829,28.901l34.168-34.168l-27.904-27.904c12.599-16.941,21.07-36.516,24.843-57.302
		h38.367V227.16H386.34c-3.773-20.785-12.315-40.432-24.914-57.373l27.904-27.904l-34.168-34.097l-28.9,28.972
		c-17.013-11.034-36.232-18.152-56.306-20.857V72.48h-20.358h-1.851H227.389z M248.673,198.544c2.705,0,5.481,0.214,8.186,0.712
		c7.545,1.353,15.091,3.987,21.64,7.973c5.268,3.274,9.966,7.688,13.525,12.741c4.556,6.549,7.901,14.165,9.538,22.067
		c1.281,6.051,1.21,12.457,0,18.508c-1.637,7.83-4.983,15.518-9.538,22.067c-3.559,5.054-8.257,9.467-13.525,12.741
		c-6.549,3.987-14.094,6.62-21.64,7.973c-5.41,0.925-11.033,0.925-16.372,0c-7.545-1.353-15.091-3.986-21.64-7.973
		c-5.268-3.274-9.966-7.688-13.525-12.741c-4.556-6.549-7.901-14.237-9.538-22.067c-1.281-6.051-1.281-12.457,0-18.508
		c1.566-7.901,4.912-15.518,9.538-22.067c3.559-5.054,8.257-9.467,13.525-12.741c6.549-3.986,14.094-6.62,21.64-7.973
		C243.192,198.758,245.897,198.544,248.673,198.544L248.673,198.544z"/>
</g>
</svg>
