<?xml version="1.0" encoding="utf-8"?>
<!-- Generator: Adobe Illustrator 23.0.6, SVG Export Plug-In . SVG Version: 6.00 Build 0)  -->
<svg version="1.1" xmlns="http://www.w3.org/2000/svg" xmlns:xlink="http://www.w3.org/1999/xlink" x="0px" y="0px"
	 viewBox="0 0 500 500" style="enable-background:new 0 0 500 500;" xml:space="preserve">
<style type="text/css">
	.st0{fill:#FFFFFF;stroke:#FFFFFF;stroke-width:10;stroke-miterlimit:10;}
	.st1{fill:#C9DDD9;}
	.st2{fill:#55A0E7;}
	.st3{fill:#2257AB;}
	.st4{fill:#102952;}
</style>
<g id="border">
	<path class="st0" d="M412.854,251.468c0-0.226-0.028-0.451-0.072-0.676V73.513c0.466-0.723,0.716-1.456,0.716-2.198
		c0-12.894-72.921-23.352-162.89-23.352c-90.041,0-162.961,10.458-162.961,23.352c0,0.53,0.134,1.055,0.374,1.576h-1.09v88.222
		c-0.044,0.223-0.072,0.447-0.072,0.672c0,0.226,0.028,0.452,0.072,0.676v264.861c-0.215,0.43-0.358,0.86-0.43,1.289
		c0,0.573,0.143,1.146,0.43,1.719v1.218h1.003c10.172,11.676,79.368,20.487,161.457,20.487c80.461,0,148.547-8.45,160.817-19.766
		c0.302-0.239,0.58-0.479,0.831-0.721h1.743v-2.834c0.044-0.225,0.072-0.45,0.072-0.676c0-0.225-0.028-0.449-0.072-0.672v-83.109
		c0.044-0.223,0.072-0.447,0.072-0.672c0-0.226-0.028-0.451-0.072-0.676v-90.77C412.826,251.917,412.854,251.693,412.854,251.468z"
		/>
</g>
<g id="object" xmlns:cc="http://creativecommons.org/ns#" xmlns:dc="http://purl.org/dc/elements/1.1/" xmlns:inkscape="http://www.inkscape.org/namespaces/inkscape" xmlns:rdf="http://www.w3.org/1999/02/22-rdf-syntax-ns#" xmlns:sodipodi="http://sodipodi.sourceforge.net/DTD/sodipodi-0.dtd" xmlns:svg="http://www.w3.org/2000/svg">
	<g>
		<path class="st1" d="M86.931,72.891v354.432c-0.215,0.43-0.358,0.86-0.43,1.289c0,0.573,0.143,1.146,0.43,1.719v1.218h1.003
			c10.172,11.676,79.368,20.487,161.457,20.487c82.161,0,151.429-8.811,161.529-20.487h1.862V72.891H86.931z"/>
		<path class="st2" d="M413.499,71.316c0,12.965-72.921,23.423-162.89,23.423c-90.041,0-162.961-10.458-162.961-23.423
			c0-12.894,72.921-23.352,162.961-23.352C340.578,47.964,413.499,58.422,413.499,71.316L413.499,71.316z"/>
		<path class="st3" d="M412.066,161.786c0,12.965-72.849,23.424-162.603,23.424c-89.826,0-162.603-10.458-162.603-23.424
			c0-12.893,72.778-23.352,162.603-23.352C339.217,138.434,412.066,148.892,412.066,161.786L412.066,161.786z"/>
		<path class="st3" d="M412.854,251.468c0,12.893-72.921,23.352-162.89,23.352c-90.041,0-162.961-10.458-162.961-23.352
			c0-12.965,72.921-23.424,162.961-23.424C339.933,228.045,412.854,238.503,412.854,251.468L412.854,251.468z"/>
		<path class="st4" d="M412.854,428.04c0,12.965-72.921,23.424-162.89,23.424c-90.041,0-162.961-10.458-162.961-23.424
			c0-12.893,72.921-23.352,162.961-23.352C339.933,404.688,412.854,415.146,412.854,428.04L412.854,428.04z"/>
		<path class="st3" d="M412.854,343.586c0,12.894-72.921,23.352-162.89,23.352c-90.041,0-162.961-10.458-162.961-23.352
			c0-12.965,72.921-23.423,162.961-23.423C339.933,320.163,412.854,330.621,412.854,343.586L412.854,343.586z"/>
	</g>
</g>
</svg>
