<?xml version="1.0" encoding="utf-8"?>
<!-- Generator: Adobe Illustrator 23.0.6, SVG Export Plug-In . SVG Version: 6.00 Build 0)  -->
<svg version="1.1" xmlns="http://www.w3.org/2000/svg" xmlns:xlink="http://www.w3.org/1999/xlink" x="0px" y="0px"
	 viewBox="0 0 500 500" style="enable-background:new 0 0 500 500;" xml:space="preserve">
<style type="text/css">
	.st0{fill:#FFFFFF;stroke:#FFFFFF;stroke-width:10;}
	.st1{fill:#808080;}
	.st2{fill:#F5FDFF;}
	.st3{fill:#696969;}
	.st4{fill:#575EAB;}
	.st5{fill:#C9C9C9;}
	.st6{fill:#525252;}
	.st7{fill:#FFFFFF;}
	.st8{fill:#9C9C9C;}
</style>
<g id="border">
	<rect x="46.363" y="100.127" class="st0" width="407.273" height="299.745"/>
</g>
<g id="object" xmlns:cc="http://creativecommons.org/ns#" xmlns:dc="http://purl.org/dc/elements/1.1/" xmlns:inkscape="http://www.inkscape.org/namespaces/inkscape" xmlns:rdf="http://www.w3.org/1999/02/22-rdf-syntax-ns#" xmlns:sodipodi="http://sodipodi.sourceforge.net/DTD/sodipodi-0.dtd" xmlns:svg="http://www.w3.org/2000/svg">
	<g>
		<g>
			<rect x="46.363" y="100.127" class="st1" width="407.273" height="299.745"/>
		</g>
		<g>
			<rect x="156.437" y="148.704" class="st2" width="278.064" height="251.168"/>
		</g>
		<rect x="187.836" y="241.724" class="st3" width="219.53" height="4.761"/>
		<rect x="187.836" y="261.664" class="st3" width="219.53" height="4.761"/>
		<rect x="187.836" y="281.537" class="st3" width="219.53" height="4.761"/>
		<rect x="187.836" y="301.143" class="st3" width="219.53" height="4.761"/>
		<rect x="187.836" y="170.588" class="st4" width="219.53" height="16.631"/>
		<rect x="322.245" y="203.492" class="st3" width="84.886" height="4.761"/>
		<rect x="322.245" y="218.202" class="st3" width="84.886" height="4.761"/>
		<rect x="187.836" y="319.288" class="st3" width="219.53" height="4.761"/>
		<rect x="187.836" y="339.228" class="st3" width="219.53" height="4.761"/>
		<rect x="187.836" y="359.101" class="st3" width="219.53" height="4.761"/>
		<rect x="187.836" y="378.708" class="st3" width="219.53" height="4.761"/>
		<g>
			<rect x="50.983" y="105.886" class="st5" width="83.448" height="288.228"/>
		</g>
		<rect x="56.538" y="140.559" class="st6" width="71.475" height="4.761"/>
		<rect x="56.538" y="153.932" class="st6" width="71.475" height="4.761"/>
		<rect x="56.538" y="167.305" class="st6" width="71.475" height="4.761"/>
		<rect x="56.538" y="120.202" class="st7" width="71.475" height="11.745"/>
		<g>
			<rect x="156.437" y="100.127" class="st8" width="278.064" height="9.347"/>
		</g>
	</g>
</g>
</svg>
