<?xml version="1.0" encoding="utf-8"?>
<!-- Generator: Adobe Illustrator 23.0.6, SVG Export Plug-In . SVG Version: 6.00 Build 0)  -->
<svg version="1.1" xmlns="http://www.w3.org/2000/svg" xmlns:xlink="http://www.w3.org/1999/xlink" x="0px" y="0px"
	 viewBox="0 0 500 500" style="enable-background:new 0 0 500 500;" xml:space="preserve">
<style type="text/css">
	.st0{fill:#FFFFFF;stroke:#FFFFFF;stroke-width:10;stroke-miterlimit:10;}
	.st1{fill:#BEC7CE;}
	.st2{fill:#424849;}
	.st3{fill:#FF3201;}
	.st4{fill:#FFD90C;}
</style>
<g id="border">
	<g>
		<path class="st0" d="M400.79,62.312v-0.075l-0.373,0.075l-245-18.749l-27.936,4.183v130.866c-0.292-0.391-0.586-0.754-0.879-1.138
			c-0.277-0.358-0.555-0.725-0.832-1.077c-3.181-4.086-6.39-7.754-9.493-10.857c0,0-0.149,0.373-0.224,0.971
			c2.048,3.257,3.938,6.856,5.665,10.735c0.064,0.144,0.128,0.287,0.191,0.432c0.437,0.995,0.857,2.018,1.273,3.048
			c0.166,0.415,0.336,0.822,0.498,1.243c0.203,0.521,0.393,1.059,0.59,1.589c1.166,3.165,2.243,6.469,3.211,9.919v95.355
			c-1.365,4.824-2.938,9.412-4.706,13.7c-11.951,12.922-18.674,29.953-18.674,47.73c0,38.468,30.7,69.691,68.496,69.691
			c1.079,0,2.15-0.033,3.217-0.083c0.307-0.014,0.611-0.036,0.917-0.055c0.794-0.048,1.584-0.108,2.371-0.183
			c0.298-0.029,0.596-0.057,0.893-0.089c0.944-0.102,1.882-0.223,2.814-0.364c0.097-0.015,0.195-0.026,0.292-0.041
			c1.111-0.173,2.213-0.374,3.306-0.6c0.015-0.003,0.029-0.007,0.044-0.01c1.059-0.22,2.108-0.47,3.148-0.739
			c0.097-0.025,0.193-0.051,0.289-0.076c14.179-3.734,26.557-11.948,35.588-23.09c0.046-0.057,0.09-0.115,0.136-0.172
			c0.566-0.703,1.118-1.418,1.658-2.144c0.195-0.262,0.388-0.526,0.58-0.791c0.366-0.507,0.723-1.02,1.076-1.537
			c0.256-0.375,0.515-0.748,0.764-1.128c0.173-0.265,0.337-0.536,0.507-0.804c2.636-4.141,4.857-8.579,6.59-13.261l136.07,82.601
			v0.214l0.154-0.12l2.535,1.539l9.545-10.951l15.702-12.278v-5.677l1.12-1.27v-0.075V62.461L400.79,62.312z"/>
		<path class="st0" d="M118.815,265.931c0-6.498-5.229-11.727-11.727-11.727c-6.424,0-11.653,5.229-11.653,11.727
			c0,6.424,5.229,11.653,11.653,11.653C113.586,277.584,118.815,272.355,118.815,265.931z"/>
	</g>
</g>
<g id="object" xmlns:cc="http://creativecommons.org/ns#" xmlns:dc="http://purl.org/dc/elements/1.1/" xmlns:inkscape="http://www.inkscape.org/namespaces/inkscape" xmlns:rdf="http://www.w3.org/1999/02/22-rdf-syntax-ns#" xmlns:sodipodi="http://sodipodi.sourceforge.net/DTD/sodipodi-0.dtd" xmlns:svg="http://www.w3.org/2000/svg">
	<g>
		<polygon class="st1" points="127.48,47.746 375.543,69.856 401.91,62.461 155.416,43.564 		"/>
		<polygon points="375.543,69.856 375.543,459.018 401.91,428.767 401.91,62.461 		"/>
		<polygon class="st2" points="127.48,47.746 375.543,69.856 375.543,459.018 127.48,308.433 		"/>
		<path class="st3" d="M116.275,165.541c0,0-0.149,0.373-0.224,0.971c11.13,17.703,17.703,45.34,17.703,74.62
			c0,22.633-3.959,44.369-10.98,61.4c-11.951,12.922-18.674,29.953-18.674,47.73c0,38.468,30.7,69.691,68.496,69.691
			c37.87,0,68.57-31.223,68.57-69.691c0-5.378-0.672-10.682-1.867-15.836c0.672-8.366-26.367-95.087-30.7-95.61
			c-3.436-0.448,16.806,57.665,1.867,79.924c-14.939-4.332-26.293-15.313-28.683-29.057
			C171.102,250.693,141.597,191.012,116.275,165.541L116.275,165.541z"/>
		<path class="st4" d="M154.968,298.125c0,0-0.075,0.224-0.075,0.448c4.855,7.694,7.694,19.794,7.694,32.567
			c0,9.86-1.718,19.42-4.78,26.816c-5.229,5.602-8.142,13.072-8.142,20.84c0,16.806,13.37,30.401,29.878,30.401
			c16.582,0,29.953-13.594,29.953-30.401c0-2.315-0.299-4.631-0.822-6.947c0.299-3.66-11.503-41.53-13.37-41.755
			c-1.569-0.149,7.32,25.247,0.822,34.957c-6.573-1.942-11.503-6.722-12.549-12.698
			C178.945,335.323,166.022,309.254,154.968,298.125L154.968,298.125z"/>
		<path class="st3" d="M181.634,193.85c0,3.436-2.764,6.2-6.2,6.2c-3.361,0-6.125-2.763-6.125-6.2c0-3.361,2.764-6.125,6.125-6.125
			C178.87,187.725,181.634,190.489,181.634,193.85L181.634,193.85z"/>
		<path class="st3" d="M118.815,265.931c0,6.424-5.229,11.653-11.727,11.653c-6.424,0-11.652-5.229-11.652-11.653
			c0-6.498,5.229-11.727,11.652-11.727C113.586,254.204,118.815,259.433,118.815,265.931L118.815,265.931z"/>
		<polygon class="st1" points="257.748,59.399 375.543,454.387 375.543,249.05 320.642,65.001 		"/>
	</g>
</g>
</svg>
