<?xml version="1.0" encoding="utf-8"?>
<!-- Generator: Adobe Illustrator 23.0.6, SVG Export Plug-In . SVG Version: 6.00 Build 0)  -->
<svg version="1.1" xmlns="http://www.w3.org/2000/svg" xmlns:xlink="http://www.w3.org/1999/xlink" x="0px" y="0px"
	 viewBox="0 0 500 500" style="enable-background:new 0 0 500 500;" xml:space="preserve">
<style type="text/css">
	.st0{fill:#FFFFFF;stroke:#FFFFFF;stroke-width:10;stroke-linecap:round;stroke-linejoin:round;stroke-miterlimit:10;}
	.st1{fill:#F40000;stroke:#FFFFFF;stroke-width:5.28;stroke-linecap:round;stroke-linejoin:round;stroke-miterlimit:10;}
</style>
<g id="border">
	<g>
		<path class="st0" d="M357.609,462.509l-104.135-17.545l22.536-28.283l4.235-5.218L143.064,305.816c-0.076,0-0.076,0-0.076,0
			l-1.437-1.134c-3.781,0.832-7.638,1.21-11.57,1.21c-30.325,0-54.979-24.351-55.357-54.6c0.378-30.25,25.032-54.677,55.357-54.677
			c3.932,0,7.789,0.454,11.57,1.286l1.437-1.21c0,0,0,0,0.076,0L280.246,91.119l-4.235-5.294l-22.536-28.283l104.135-17.469
			l-40.156,97.631l-21.024-26.317l0,0l-2.949-3.706L168.7,212.42c6.579,6.504,11.495,14.52,14.217,23.368h0.454
			c0.227,0.908,0.454,1.891,0.681,2.798l147.618,2.117l0.151-39.476l90.9,50.063l-90.9,49.987l-0.151-39.476l-147.618,2.118
			c-0.227,0.983-0.454,1.891-0.681,2.798h-0.454c-2.722,8.848-7.638,16.94-14.217,23.368l124.78,104.74l2.949-3.706l0,0
			l21.024-26.318L357.609,462.509L357.609,462.509z"/>
	</g>
</g>
<g id="object" xmlns:cc="http://creativecommons.org/ns#" xmlns:dc="http://purl.org/dc/elements/1.1/" xmlns:inkscape="http://www.inkscape.org/namespaces/inkscape" xmlns:rdf="http://www.w3.org/1999/02/22-rdf-syntax-ns#" xmlns:sodipodi="http://sodipodi.sourceforge.net/DTD/sodipodi-0.dtd" xmlns:svg="http://www.w3.org/2000/svg">
	<path class="st1" d="M357.609,462.509l-104.135-17.545l22.536-28.283l4.235-5.218L143.064,305.816c-0.076,0-0.076,0-0.076,0
		l-1.437-1.134c-3.781,0.832-7.638,1.21-11.57,1.21c-30.325,0-54.979-24.351-55.357-54.6c0.378-30.25,25.032-54.677,55.357-54.677
		c3.932,0,7.789,0.454,11.57,1.286l1.437-1.21c0,0,0,0,0.076,0L280.246,91.119l-4.235-5.294l-22.536-28.283l104.135-17.469
		l-40.156,97.631l-21.024-26.317l0,0l-2.949-3.706L168.7,212.42c6.579,6.504,11.495,14.52,14.217,23.368h0.454
		c0.227,0.908,0.454,1.891,0.681,2.798l147.618,2.117l0.151-39.476l90.9,50.063l-90.9,49.987l-0.151-39.476l-147.618,2.118
		c-0.227,0.983-0.454,1.891-0.681,2.798h-0.454c-2.722,8.848-7.638,16.94-14.217,23.368l124.78,104.74l2.949-3.706l0,0
		l21.024-26.318L357.609,462.509L357.609,462.509z"/>
</g>
</svg>
