<?xml version="1.0" encoding="utf-8"?>
<!-- Generator: Adobe Illustrator 23.0.6, SVG Export Plug-In . SVG Version: 6.00 Build 0)  -->
<svg version="1.1" xmlns="http://www.w3.org/2000/svg" xmlns:xlink="http://www.w3.org/1999/xlink" x="0px" y="0px"
	 viewBox="0 0 500 500" style="enable-background:new 0 0 500 500;" xml:space="preserve">
<style type="text/css">
	.st0{fill:#FFFFFF;stroke:#FFFFFF;stroke-width:10;}
	.st1{fill:#FFFBC7;}
	.st2{fill:#FF852E;}
	.st3{fill:#FAD08F;}
	.st4{fill:#AED689;}
	.st5{fill:#73BC3F;}
	.st6{fill:#696969;}
	.st7{fill:#FFEAE3;}
	.st8{fill:#E7704A;}
</style>
<g id="border">
	<rect x="46.364" y="100.128" class="st0" width="407.272" height="299.745"/>
</g>
<g id="object" xmlns:cc="http://creativecommons.org/ns#" xmlns:dc="http://purl.org/dc/elements/1.1/" xmlns:inkscape="http://www.inkscape.org/namespaces/inkscape" xmlns:rdf="http://www.w3.org/1999/02/22-rdf-syntax-ns#" xmlns:sodipodi="http://sodipodi.sourceforge.net/DTD/sodipodi-0.dtd" xmlns:svg="http://www.w3.org/2000/svg">
	<g>
		<g>
			<rect x="46.364" y="168.548" class="st1" width="407.273" height="231.325"/>
		</g>
		<g>
			<rect x="46.364" y="100.128" class="st2" width="407.273" height="68.42"/>
		</g>
		<g>
			<rect x="78.13" y="194.153" class="st3" width="163.719" height="177.566"/>
		</g>
		<g>
			<circle class="st4" cx="347.552" cy="284.21" r="76.056"/>
		</g>
		<g>
			<path class="st5" d="M347.552,283.968v-75.811c-20.906,0.065-39.825,8.566-53.536,22.275L347.552,283.968z"/>
		</g>
		<rect x="96.593" y="217.488" class="st6" width="127.066" height="7.108"/>
		<rect x="71.204" y="117.815" class="st7" width="93.263" height="6.133"/>
		<rect x="72.208" y="136.593" class="st7" width="351.401" height="13.176"/>
		<rect x="95.15" y="307.01" class="st8" width="68.789" height="14.94"/>
		<rect x="96.593" y="247.257" class="st6" width="127.066" height="7.108"/>
		<rect x="96.593" y="276.927" class="st6" width="127.066" height="7.108"/>
		<rect x="174.39" y="310.15" class="st6" width="49.133" height="7.108"/>
		<rect x="96.593" y="342.136" class="st6" width="127.066" height="7.108"/>
	</g>
</g>
</svg>
