<?xml version="1.0" encoding="utf-8"?>
<!-- Generator: Adobe Illustrator 23.0.6, SVG Export Plug-In . SVG Version: 6.00 Build 0)  -->
<svg version="1.1" xmlns="http://www.w3.org/2000/svg" xmlns:xlink="http://www.w3.org/1999/xlink" x="0px" y="0px"
	 viewBox="0 0 500 500" style="enable-background:new 0 0 500 500;" xml:space="preserve">
<style type="text/css">
	.st0{fill:#FFFFFF;stroke:#FFFFFF;stroke-width:10;stroke-miterlimit:10;}
	.st1{fill:#FAC300;}
</style>
<g id="border">
	<path class="st0" d="M193.8,47.2c-8.5,1.1-16.7,3.5-24.6,6.9c0,0,0,0,0,0c-37.7,16.4-59.9,55.7-54.5,96.4
		c6.7,50.4,53,85.8,103.3,79.2c0,0,0,0,0,0c3.2-0.4,6.5-1.1,9.6-1.8l102.4,225.7l11.5-5.2l20.5-9.3l-38.3-84.4l58.8-26.7l-8.8-19
		l-58.6,26.6l-15.6-34.5l43.8-20.7L336,264l-43.9,20.8l-32.5-71.6c27.6-19.8,42-53.2,37.5-86.8C290.5,76,244.2,40.5,193.8,47.2
		L193.8,47.2z M202.5,116.1c12.9-1.7,24.8,7.4,26.5,20.3c1.3,10.1-4,19.9-13.1,24.4c-2.3,1.1-4.7,1.8-7.2,2.2
		c-12.9,1.7-24.8-7.4-26.5-20.3c-1.4-10.8,4.7-21.1,14.8-25.1c0.7-0.3,1.4-0.5,2.1-0.7c0.2,0,0.3-0.1,0.5-0.1
		c0.6-0.2,1.2-0.3,1.8-0.4C201.7,116.2,202.1,116.2,202.5,116.1L202.5,116.1z"/>
</g>
<g id="object" xmlns:cc="http://creativecommons.org/ns#" xmlns:dc="http://purl.org/dc/elements/1.1/" xmlns:inkscape="http://www.inkscape.org/namespaces/inkscape" xmlns:rdf="http://www.w3.org/1999/02/22-rdf-syntax-ns#" xmlns:sodipodi="http://sodipodi.sourceforge.net/DTD/sodipodi-0.dtd" xmlns:svg="http://www.w3.org/2000/svg">
	<path inkscape:connector-curvature="0" class="st1" d="M193.8,47.2c-8.5,1.1-16.7,3.5-24.6,6.9c0,0,0,0,0,0
		c-37.7,16.4-59.9,55.7-54.5,96.4c6.7,50.4,53,85.8,103.3,79.2c0,0,0,0,0,0c3.2-0.4,6.5-1.1,9.6-1.8l102.4,225.7l11.5-5.2l20.5-9.3
		l-38.3-84.4l58.8-26.7l-8.8-19l-58.6,26.6l-15.6-34.5l43.8-20.7L336,264l-43.9,20.8l-32.5-71.6c27.6-19.8,42-53.2,37.5-86.8
		C290.5,76,244.2,40.5,193.8,47.2L193.8,47.2z M202.5,116.1c12.9-1.7,24.8,7.4,26.5,20.3c1.3,10.1-4,19.9-13.1,24.4
		c-2.3,1.1-4.7,1.8-7.2,2.2c-12.9,1.7-24.8-7.4-26.5-20.3c-1.4-10.8,4.7-21.1,14.8-25.1c0.7-0.3,1.4-0.5,2.1-0.7
		c0.2,0,0.3-0.1,0.5-0.1c0.6-0.2,1.2-0.3,1.8-0.4C201.7,116.2,202.1,116.2,202.5,116.1L202.5,116.1z"/>
</g>
</svg>
