<?xml version="1.0" encoding="utf-8"?>
<!-- Generator: Adobe Illustrator 23.0.6, SVG Export Plug-In . SVG Version: 6.00 Build 0)  -->
<svg version="1.1" xmlns="http://www.w3.org/2000/svg" xmlns:xlink="http://www.w3.org/1999/xlink" x="0px" y="0px"
	 viewBox="0 0 500 500" style="enable-background:new 0 0 500 500;" xml:space="preserve">
<style type="text/css">
	.st0{fill:#FFFFFF;stroke:#FFFFFF;stroke-width:10;stroke-miterlimit:10;}
	.st1{fill:#FAC300;}
	.st2{fill:#151515;}
	.st3{fill:#1F1F1F;}
</style>
<g id="border">
	<path class="st0" d="M395,213L395,213l-1.3,2.1v-0.3h-4.2c-10.2-96.2-68.7-170-139.5-170c-70.7,0-129.3,73.8-139.5,170h-9h0v0.1
		c-29,98.1-4.9,214.6,0,235.9v2h292.1v-4.3l0.1,0.1C393.7,448.6,435.2,319.1,395,213z M280.7,214.8h-21.8H215h-15.9h-5.9h-15.9
		h-35.3C151.9,143,196.5,88.8,250,88.8c0,0,0,0,0,0c53.5,0,98.1,54.2,107.9,125.9H280.7z"/>
</g>
<g id="object" inkscape:export-filename="C:\Users\acd-kimura-y\Desktop\譁ｭ励↑縺予png\web_server.png" inkscape:export-xdpi="90" inkscape:export-ydpi="90" inkscape:version="0.91 r13725" sodipodi:docname="web_server.svg" xmlns:cc="http://creativecommons.org/ns#" xmlns:dc="http://purl.org/dc/elements/1.1/" xmlns:inkscape="http://www.inkscape.org/namespaces/inkscape" xmlns:rdf="http://www.w3.org/1999/02/22-rdf-syntax-ns#" xmlns:sodipodi="http://sodipodi.sourceforge.net/DTD/sodipodi-0.dtd" xmlns:svg="http://www.w3.org/2000/svg">
	<g>
		<path inkscape:connector-curvature="0" class="st1" d="M393.6,452.8v-4.3l0.1,0.1c0,0,41.5-129.4,1.3-235.6v0l-1.3,2.1v-0.3h-113
			h-21.8H215h-15.9h-5.9h-15.9h-54.1h-21.8h0v0.1c-29,98.1-4.9,214.6,0,235.9v2H393.6z"/>
		<path inkscape:connector-curvature="0" class="st1" d="M124.3,455.2"/>
		<path class="st2" d="M288.6,319.1c0-21.7-17.3-39.3-38.6-39.3s-38.6,17.6-38.6,39.3c0,17.4,11.1,32.1,26.4,37.3v32.5
			c0,0.5,0.5,0.9,1.2,0.9H261c0.7,0,1.2-0.4,1.2-0.9v-32.5C277.5,351.2,288.6,336.5,288.6,319.1z"/>
		<path class="st3" d="M123.3,214.8h18.8C151.9,143,196.5,88.8,250,88.8c0,0,0,0,0,0c53.5,0,98.1,54.2,107.9,125.9h31.5
			c-10.2-96.2-68.7-170-139.5-170c-70.7,0-129.3,73.8-139.5,170H123.3z"/>
	</g>
</g>
</svg>
