<?xml version="1.0" encoding="utf-8"?>
<!-- Generator: Adobe Illustrator 23.0.6, SVG Export Plug-In . SVG Version: 6.00 Build 0)  -->
<svg version="1.1" xmlns="http://www.w3.org/2000/svg" xmlns:xlink="http://www.w3.org/1999/xlink" x="0px" y="0px"
	 viewBox="0 0 500 500" style="enable-background:new 0 0 500 500;" xml:space="preserve">
<style type="text/css">
	.st0{fill:#FFFFFF;stroke:#FFFFFF;stroke-width:10;stroke-miterlimit:10;}
	.st1{fill:#F60000;}
	.st2{fill:#FF4607;}
	.st3{fill:#FF2907;}
	.st4{fill:#FF7D20;}
	.st5{fill:#FF6E07;}
	.st6{fill:#FFD320;}
	.st7{fill:#FFA620;}
	.st8{fill:#EEFB9E;}
</style>
<g id="border">
	<g>
		<path class="st0" d="M468.273,243.895l-59.627-60.365h-48.273l59.626,60.364c0.079,2.636-59.627,72.656-56.885,72.512
			l48.274,0.001C411.388,316.407,468.351,246.531,468.273,243.895z"/>
		<path class="st0" d="M289.191,183.531h-48.273 M144.37,183.531H96.097l59.626,60.364c0.079,2.636-59.627,72.656-56.885,72.512
			l48.274,0.001c-0.066,0.003-0.085-0.046-0.08-0.123c-0.005,0.077,0.014,0.126,0.08,0.123l48.274,0.001
			c-0.043,0.002-0.07-0.013-0.083-0.045c0.013,0.031,0.04,0.046,0.083,0.044l48.274,0.001c-0.043,0.002-0.07-0.013-0.083-0.045
			c0.013,0.031,0.04,0.046,0.083,0.044l48.274,0.001c-0.043,0.002-0.07-0.013-0.083-0.045c0.013,0.031,0.04,0.046,0.083,0.044
			l48.274,0.001c0,0,56.964-69.876,56.885-72.512l-59.627-60.365h-48.273 M192.643,183.531H144.37 M240.917,183.531h-48.273"/>
		<path class="st0" d="M141.643,243.895l-59.627-60.365H33.743l59.626,60.364c0.079,2.636-59.627,72.656-56.885,72.512l48.274,0.001
			C85.255,316.407,141.722,246.531,141.643,243.895z"/>
	</g>
</g>
<g id="object" inkscape:export-filename="C:\Users\acd-kimura-y\Desktop\譁ｭ励↑縺予png\user_male_blue.png" inkscape:export-xdpi="90" inkscape:export-ydpi="90" inkscape:version="0.91 r13725" sodipodi:docname="user_male_blue.svg" xmlns:cc="http://creativecommons.org/ns#" xmlns:dc="http://purl.org/dc/elements/1.1/" xmlns:inkscape="http://www.inkscape.org/namespaces/inkscape" xmlns:rdf="http://www.w3.org/1999/02/22-rdf-syntax-ns#" xmlns:sodipodi="http://sodipodi.sourceforge.net/DTD/sodipodi-0.dtd" xmlns:svg="http://www.w3.org/2000/svg">
	<path inkscape:connector-curvature="0" class="st1" d="M408.646,183.531h-48.274v-0.001l59.627,60.365
		c0.079,2.636-59.627,72.656-56.885,72.512l48.274,0.001c-2.742,0.144,56.964-69.876,56.885-72.512L408.646,183.531z"/>
	<path inkscape:connector-curvature="0" class="st2" d="M291.933,316.407c-2.742,0.144,56.964-69.876,56.885-72.512l-59.627-60.365
		h-48.274l0-0.001l59.627,60.365c0.079,2.636-59.627,72.656-56.885,72.512L291.933,316.407z"/>
	<path inkscape:connector-curvature="0" class="st3" d="M340.206,316.407c-2.742,0.144,56.964-69.876,56.885-72.512l-59.627-60.365
		h-48.274v-0.001l59.627,60.365c0.079,2.636-59.627,72.656-56.885,72.512L340.206,316.407z"/>
	<path inkscape:connector-curvature="0" class="st4" d="M195.386,316.407c-2.742,0.144,56.964-69.876,56.885-72.512l-59.627-60.365
		H144.37v-0.001l59.627,60.365c0.079,2.636-59.627,72.656-56.885,72.512L195.386,316.407z"/>
	<path inkscape:connector-curvature="0" class="st5" d="M243.659,316.407c-2.742,0.144,56.964-69.876,56.885-72.512l-59.627-60.365
		h-48.274l0-0.001l59.627,60.365c0.079,2.636-59.627,72.656-56.885,72.512L243.659,316.407z"/>
	<path inkscape:connector-curvature="0" class="st6" d="M84.759,316.407c-2.742,0.144,56.964-69.876,56.885-72.512l-59.627-60.365
		H33.743l0-0.001l59.627,60.365c0.079,2.636-59.627,72.656-56.885,72.512L84.759,316.407z"/>
	<path inkscape:connector-curvature="0" class="st7" d="M147.112,316.407c-2.742,0.144,56.964-69.876,56.885-72.512l-59.627-60.365
		H96.096l0-0.001l59.627,60.365c0.079,2.636-59.627,72.656-56.885,72.512L147.112,316.407z"/>
	<circle class="st8" cx="175.87" cy="212.966" r="16.068"/>
	
		<ellipse transform="matrix(0.1602 -0.9871 0.9871 0.1602 -84.4842 462.9725)" class="st8" cx="229.837" cy="281.136" rx="26.009" ry="26.009"/>
	<circle class="st8" cx="285.225" cy="220.067" r="15.358"/>
	
		<ellipse transform="matrix(0.0161 -0.9999 0.9999 0.0161 -129.8942 276.8842)" class="st8" cx="75.745" cy="204.445" rx="11.097" ry="11.097"/>
	<circle class="st8" cx="416.594" cy="279.006" r="11.097"/>
</g>
</svg>
