<?xml version="1.0" encoding="utf-8"?>
<!-- Generator: Adobe Illustrator 23.0.6, SVG Export Plug-In . SVG Version: 6.00 Build 0)  -->
<svg version="1.1" xmlns="http://www.w3.org/2000/svg" xmlns:xlink="http://www.w3.org/1999/xlink" x="0px" y="0px"
	 viewBox="0 0 500 500" style="enable-background:new 0 0 500 500;" xml:space="preserve">
<style type="text/css">
	.st0{fill:#FFFFFF;stroke:#FFFFFF;stroke-width:10;stroke-miterlimit:10;}
	.st1{fill:#E7E7E7;}
	.st2{fill:#CED9F7;}
	.st3{fill:#556A86;}
	.st4{fill:#F4ED57;}
</style>
<g id="border">
	<path class="st0" d="M428.867,369.116c0-0.007,0.002-0.013,0.002-0.02c0-0.005-0.002-0.01-0.002-0.015
		c-0.017-4.245-7.464-8.24-20.569-11.733v-10.12c10.489-2.937,17.019-6.215,18.591-9.688c0.009-0.02,0.02-0.04,0.028-0.06
		c0.091-0.208,0.163-0.416,0.218-0.625c0.009-0.034,0.023-0.067,0.031-0.101c0.055-0.234,0.092-0.469,0.102-0.705h0.844v0v-69.103
		c0.489-0.757,0.751-1.524,0.755-2.3c0-0.006,0.002-0.011,0.002-0.017c0-0.004-0.001-0.009-0.002-0.013
		c-0.016-4.245-7.463-8.241-20.569-11.734v-8.221c10.491-2.937,17.021-6.216,18.592-9.69c0.009-0.019,0.019-0.038,0.027-0.057
		c0.091-0.209,0.164-0.418,0.219-0.628c0.009-0.033,0.022-0.065,0.03-0.098c0.055-0.234,0.093-0.469,0.102-0.706h0.844h0V164.38
		c0.489-0.758,0.752-1.526,0.755-2.302c0-0.005,0.002-0.01,0.002-0.014c0-0.004-0.001-0.008-0.001-0.011
		c-0.013-4.246-7.461-8.242-20.569-11.736v-8.221c10.493-2.938,17.023-6.217,18.592-9.692c0.008-0.018,0.018-0.036,0.026-0.055
		c0.091-0.209,0.164-0.419,0.219-0.63c0.009-0.032,0.022-0.065,0.03-0.097c0.055-0.234,0.093-0.47,0.102-0.706h0.844V61.813
		c0.489-0.758,0.752-1.526,0.755-2.303c0-0.005,0.001-0.009,0.002-0.014c0-0.749-0.245-1.49-0.699-2.223
		c-7.832-12.66-81.893-22.587-172.117-22.587c-93.952,0-170.393,10.763-172.758,24.169c-0.038,0.213-0.057,0.426-0.057,0.64
		c0,0.001,0,0.002,0,0.003c0.001,0.541,0.135,1.077,0.373,1.608h-1.13v68.996c-0.243,0.083-0.4,0.166-0.471,0.249
		c0.017,0.1,0.159,0.201,0.427,0.301c-0.014,0.04-0.028,0.079-0.041,0.119c-0.001,4.176,7.18,8.11,19.847,11.563v8.407
		c-12.144,3.393-19.001,7.241-19.004,11.318c0,0.001,0,0.002,0,0.003c0,0.214,0.019,0.428,0.057,0.64
		c0.058,0.326,0.172,0.649,0.316,0.972h-1.13v68.996c-0.243,0.083-0.4,0.166-0.471,0.249c0.017,0.1,0.159,0.201,0.427,0.3
		c-0.014,0.04-0.028,0.079-0.041,0.119c-0.001,4.176,7.18,8.11,19.847,11.563v8.407c-12.144,3.393-19.001,7.241-19.004,11.318
		c0,0.001,0,0.002,0,0.003c0,0.214,0.019,0.428,0.057,0.64c0.058,0.326,0.172,0.649,0.316,0.972h-1.13v68.995
		c-0.243,0.083-0.4,0.166-0.471,0.249c0.017,0.1,0.159,0.201,0.427,0.301c-0.014,0.04-0.028,0.079-0.041,0.119
		c-0.001,4.176,7.18,8.11,19.847,11.563v10.307c-12.144,3.393-19.001,7.241-19.004,11.318c0,0.001,0,0.002,0,0.003
		c0,0.214,0.019,0.428,0.057,0.64c0.058,0.326,0.172,0.649,0.316,0.972h-1.13v68.996c-0.243,0.083-0.4,0.166-0.471,0.249
		c0.017,0.1,0.159,0.201,0.427,0.3c-0.014,0.04-0.028,0.079-0.041,0.119c-0.004,13.702,77.206,24.81,172.453,24.811
		c0.002,0,0.005,0,0.007,0c94.84-0.004,171.863-11.023,172.412-24.666h0.844v-69.103
		C428.601,370.656,428.863,369.89,428.867,369.116z"/>
</g>
<g id="object" xmlns:cc="http://creativecommons.org/ns#" xmlns:dc="http://purl.org/dc/elements/1.1/" xmlns:inkscape="http://www.inkscape.org/namespaces/inkscape" xmlns:rdf="http://www.w3.org/1999/02/22-rdf-syntax-ns#" xmlns:sodipodi="http://sodipodi.sourceforge.net/DTD/sodipodi-0.dtd" xmlns:svg="http://www.w3.org/2000/svg">
	<g>
		<ellipse class="st1" cx="256.054" cy="162.063" rx="172.815" ry="24.81"/>
		<ellipse class="st2" cx="256.054" cy="369.096" rx="172.815" ry="24.81"/>
		<ellipse class="st1" cx="256.054" cy="59.496" rx="172.815" ry="24.81"/>
		<ellipse class="st2" cx="256.054" cy="264.63" rx="172.815" ry="24.81"/>
		<path inkscape:connector-curvature="0" class="st3" d="M82.482,266.242v68.996c-0.243,0.083-0.4,0.166-0.471,0.249
			c0.017,0.1,0.159,0.201,0.427,0.301c-0.014,0.04-0.028,0.079-0.041,0.119c-0.004,13.702,77.206,24.81,172.454,24.811
			c0.002,0,0.004,0,0.006,0c94.84-0.004,171.863-11.023,172.412-24.666h0.844v-69.251c-7.829,12.807-82.508,22.634-172.059,22.641
			c-91.07-0.002-166.498-10.15-172.417-23.197H82.482z"/>
		<path inkscape:connector-curvature="0" class="st3" d="M82.482,61.108v68.995c-0.243,0.083-0.4,0.166-0.471,0.249
			c0.017,0.1,0.159,0.201,0.427,0.3c-0.014,0.04-0.028,0.079-0.041,0.119c-0.004,13.702,77.206,24.81,172.454,24.811
			c0.002,0,0.004,0,0.006,0c94.84-0.004,171.863-11.023,172.412-24.666h0.844V61.108H82.482z"/>
		<ellipse class="st2" cx="256.054" cy="59.496" rx="172.815" ry="24.81"/>
		<path inkscape:connector-curvature="0" class="st3" d="M82.482,370.708v68.995c-0.243,0.083-0.4,0.166-0.471,0.249
			c0.017,0.1,0.159,0.201,0.427,0.301c-0.014,0.04-0.028,0.079-0.041,0.119c-0.004,13.702,77.206,24.81,172.453,24.811
			c0.002,0,0.005,0,0.007,0c94.84-0.004,171.863-11.023,172.412-24.666h0.844v-69.251c-7.83,12.807-82.509,22.633-172.059,22.64
			c-91.069-0.002-166.497-10.15-172.417-23.197H82.482z"/>
		<path inkscape:connector-curvature="0" class="st3" d="M82.482,163.675v68.995c-0.243,0.083-0.4,0.166-0.471,0.249
			c0.017,0.1,0.159,0.201,0.427,0.3c-0.014,0.04-0.028,0.079-0.041,0.119c-0.004,13.702,77.206,24.81,172.454,24.811
			c0.002,0,0.004,0,0.006,0c94.84-0.004,171.863-11.023,172.412-24.666h0.844v-69.251c-7.829,12.807-82.508,22.634-172.059,22.641
			c-91.07-0.002-166.498-10.15-172.417-23.197H82.482z"/>
		<path class="st2" d="M408.298,150.315v12.01c-29.396,7.929-87.338,13.133-152.245,13.15
			c-66.051-0.013-124.905-5.399-153.81-13.564v-11.17c-12.143,3.393-18.999,7.24-19.004,11.317c0,0.001,0,0.003-0.001,0.004
			c0,0.237,0.028,0.472,0.074,0.707c0.015,0.076,0.041,0.152,0.06,0.228c0.041,0.159,0.088,0.319,0.15,0.477
			c0.035,0.088,0.076,0.176,0.117,0.264c0.069,0.148,0.146,0.295,0.233,0.442c0.052,0.089,0.106,0.178,0.165,0.267
			c0.101,0.152,0.215,0.303,0.334,0.453c0.064,0.08,0.122,0.16,0.191,0.24c0.163,0.189,0.344,0.377,0.537,0.565
			c0.041,0.04,0.074,0.08,0.116,0.119c0.24,0.226,0.503,0.451,0.785,0.675c0.085,0.067,0.18,0.134,0.268,0.201
			c0.208,0.158,0.423,0.316,0.652,0.473c0.12,0.082,0.247,0.164,0.373,0.246c0.219,0.143,0.445,0.285,0.681,0.427
			c0.14,0.084,0.282,0.168,0.428,0.252c0.249,0.143,0.51,0.286,0.777,0.428c0.146,0.078,0.288,0.155,0.438,0.233
			c0.324,0.166,0.663,0.331,1.011,0.496c0.107,0.051,0.207,0.102,0.317,0.153c0.464,0.215,0.948,0.429,1.452,0.642
			c0.117,0.049,0.243,0.098,0.363,0.148c0.394,0.163,0.796,0.326,1.213,0.487c0.188,0.073,0.383,0.145,0.575,0.217
			c0.367,0.138,0.741,0.276,1.125,0.413c0.216,0.077,0.435,0.154,0.657,0.231c0.388,0.135,0.786,0.269,1.191,0.402
			c0.221,0.073,0.44,0.146,0.666,0.219c0.458,0.147,0.928,0.293,1.405,0.439c0.184,0.056,0.363,0.113,0.55,0.169
			c0.669,0.2,1.354,0.399,2.059,0.596c0.014,0.004,0.027,0.008,0.041,0.012v-0.001c28.661,8.009,86.777,13.488,153.81,13.488
			c65.469-0.005,122.984-5.259,152.245-13.089v0.028c13.12-3.497,20.571-7.497,20.571-11.748S421.418,153.812,408.298,150.315z"/>
		<path class="st2" d="M408.298,252.882v12.01c-29.396,7.929-87.338,13.133-152.245,13.15
			c-66.051-0.013-124.905-5.399-153.81-13.564v-11.17c-12.143,3.393-18.999,7.24-19.004,11.317c0,0.001,0,0.003-0.001,0.004
			c0,0.237,0.028,0.472,0.074,0.707c0.015,0.076,0.041,0.152,0.06,0.228c0.041,0.159,0.088,0.319,0.15,0.477
			c0.035,0.088,0.076,0.176,0.117,0.264c0.069,0.148,0.146,0.295,0.233,0.442c0.052,0.089,0.106,0.178,0.165,0.267
			c0.101,0.152,0.215,0.303,0.334,0.453c0.064,0.08,0.122,0.16,0.191,0.24c0.163,0.189,0.344,0.377,0.537,0.565
			c0.041,0.04,0.074,0.08,0.116,0.119c0.24,0.226,0.503,0.451,0.785,0.675c0.085,0.067,0.18,0.134,0.269,0.201
			c0.208,0.158,0.422,0.315,0.651,0.472c0.121,0.083,0.249,0.165,0.375,0.247c0.218,0.142,0.444,0.284,0.679,0.426
			c0.14,0.084,0.282,0.168,0.428,0.252c0.249,0.143,0.51,0.286,0.777,0.428c0.146,0.078,0.288,0.155,0.438,0.233
			c0.324,0.166,0.663,0.331,1.011,0.496c0.107,0.051,0.207,0.102,0.317,0.153c0.464,0.215,0.948,0.429,1.452,0.642
			c0.118,0.05,0.245,0.099,0.365,0.149c0.393,0.163,0.794,0.324,1.209,0.485c0.19,0.074,0.387,0.146,0.582,0.22
			c0.366,0.138,0.738,0.275,1.12,0.411c0.217,0.077,0.436,0.154,0.658,0.231c0.387,0.134,0.782,0.267,1.185,0.4
			c0.224,0.074,0.446,0.148,0.674,0.221c0.456,0.146,0.924,0.292,1.399,0.437c0.185,0.057,0.365,0.114,0.553,0.17
			c0.669,0.2,1.354,0.399,2.059,0.596c0.014,0.004,0.027,0.008,0.041,0.012v-0.001c28.661,8.009,86.777,13.488,153.81,13.488
			c65.469-0.005,122.984-5.259,152.245-13.089v0.028c13.12-3.497,20.571-7.497,20.571-11.748S421.418,256.379,408.298,252.882z"/>
		<path class="st2" d="M408.298,357.348v12.01c-29.396,7.929-87.338,13.133-152.245,13.15
			c-66.051-0.013-124.905-5.399-153.81-13.564v-11.17c-12.143,3.393-18.999,7.24-19.004,11.317c0,0.001,0,0.003-0.001,0.004
			c0,0.237,0.028,0.472,0.074,0.707c0.015,0.076,0.041,0.152,0.06,0.228c0.041,0.159,0.088,0.319,0.15,0.477
			c0.035,0.088,0.076,0.176,0.117,0.264c0.069,0.148,0.146,0.295,0.233,0.442c0.052,0.089,0.106,0.178,0.165,0.267
			c0.101,0.151,0.214,0.302,0.334,0.453c0.064,0.08,0.123,0.161,0.192,0.241c0.162,0.188,0.343,0.376,0.534,0.563
			c0.042,0.041,0.076,0.081,0.119,0.122c0.24,0.226,0.503,0.451,0.785,0.675c0.086,0.068,0.182,0.135,0.271,0.203
			c0.207,0.157,0.42,0.314,0.648,0.47c0.122,0.083,0.251,0.166,0.378,0.249c0.217,0.141,0.441,0.283,0.675,0.423
			c0.141,0.085,0.285,0.17,0.432,0.254c0.248,0.142,0.507,0.284,0.772,0.425c0.147,0.078,0.291,0.157,0.443,0.235
			c0.32,0.164,0.656,0.328,0.999,0.491c0.111,0.053,0.215,0.106,0.329,0.159c0.463,0.214,0.945,0.428,1.447,0.639
			c0.125,0.053,0.259,0.105,0.386,0.157c0.386,0.16,0.779,0.319,1.187,0.477c0.193,0.075,0.394,0.149,0.593,0.224
			c0.363,0.136,0.731,0.272,1.11,0.408c0.219,0.078,0.44,0.156,0.664,0.233c0.384,0.133,0.777,0.266,1.177,0.398
			c0.226,0.075,0.45,0.149,0.681,0.224c0.452,0.145,0.918,0.289,1.388,0.433c0.189,0.058,0.371,0.116,0.563,0.173
			c0.667,0.2,1.349,0.398,2.052,0.594c0.016,0.004,0.031,0.009,0.046,0.013v-0.001c28.661,8.009,86.777,13.488,153.81,13.488
			c65.469-0.005,122.983-5.259,152.245-13.089v0.028c13.12-3.497,20.571-7.497,20.571-11.748S421.418,360.845,408.298,357.348z"/>
		<path class="st4" d="M254.857,360.716c-0.002,0-0.004,0-0.006,0c-66.22,0-123.71-5.371-152.607-13.248v10.307v11.17
			c28.905,8.165,87.759,13.55,153.81,13.564c64.907-0.017,122.849-5.221,152.245-13.15v-12.01v-10.119
			C379.693,355.238,321.703,360.713,254.857,360.716z"/>
		<path class="st4" d="M254.851,258.149c-66.22,0-123.71-5.371-152.607-13.248v8.407v11.17c28.905,8.165,87.759,13.55,153.81,13.564
			c64.907-0.017,122.849-5.221,152.245-13.15v-12.01v-8.22c-28.605,8.009-86.595,13.484-153.441,13.487
			C254.855,258.149,254.853,258.149,254.851,258.149z"/>
		<path class="st4" d="M256.053,175.476c64.907-0.017,122.849-5.221,152.245-13.15v-12.01v-8.22
			c-28.605,8.009-86.595,13.484-153.441,13.487c-0.002,0-0.004,0-0.006,0c-66.22,0-123.71-5.371-152.607-13.248v8.407v11.17
			C131.149,170.077,190.003,175.462,256.053,175.476z"/>
	</g>
</g>
</svg>
