<?xml version="1.0" encoding="utf-8"?>
<!-- Generator: Adobe Illustrator 23.0.6, SVG Export Plug-In . SVG Version: 6.00 Build 0)  -->
<svg version="1.1" xmlns="http://www.w3.org/2000/svg" xmlns:xlink="http://www.w3.org/1999/xlink" x="0px" y="0px"
	 viewBox="0 0 500 500" style="enable-background:new 0 0 500 500;" xml:space="preserve">
<style type="text/css">
	.st0{fill:#FFFFFF;stroke:#FFFFFF;stroke-width:10;stroke-miterlimit:10;}
	.st1{fill:#4E607E;}
	.st2{fill:#FF2B06;}
	.st3{fill:#E6E6E6;}
</style>
<g id="border">
	<path class="st0" d="M379.402,200.828c-0.559,0.466-0.932,15.942-1.119,34.402h-37.997c-4.308-16.287-14.235-27.689-25.772-27.689
		c-1.958,0-3.822,0.282-5.687,0.941v-0.941H108.665c-11.541,0-21.472,11.41-25.777,27.689H42.845v37.758h40.466
		c4.51,15.496,14.176,26.197,25.353,26.197h200.163v-0.941c1.865,0.564,3.729,0.941,5.687,0.941
		c11.181,0,20.851-10.709,25.358-26.197h38.504c0.186,14.451,0.559,25.731,1.026,26.104c1.585,1.025,77.753-47.174,77.753-49.132
		S380.987,199.896,379.402,200.828z M112.933,298.657c9.332-2.33,17.161-12.184,21.085-25.669h0.005
		C130.1,286.466,122.269,296.326,112.933,298.657z"/>
</g>
<g id="object" xmlns:cc="http://creativecommons.org/ns#" xmlns:dc="http://purl.org/dc/elements/1.1/" xmlns:inkscape="http://www.inkscape.org/namespaces/inkscape" xmlns:rdf="http://www.w3.org/1999/02/22-rdf-syntax-ns#" xmlns:sodipodi="http://sodipodi.sourceforge.net/DTD/sodipodi-0.dtd" xmlns:svg="http://www.w3.org/2000/svg">
	<g>
		<path class="st1" d="M136.727,253.316c0,25.358-12.586,45.869-28.062,45.869s-28.062-20.51-28.062-45.869
			c0-25.265,12.586-45.775,28.062-45.775S136.727,228.051,136.727,253.316L136.727,253.316z"/>
		<path class="st2" d="M379.402,200.828c-0.559,0.466-0.932,15.942-1.119,34.402H42.845v37.758h335.531
			c0.186,14.451,0.559,25.731,1.026,26.104c1.585,1.025,77.753-47.174,77.753-49.132
			C457.155,248.002,380.987,199.896,379.402,200.828L379.402,200.828z"/>
		<path class="st3" d="M108.572,207.541 M108.665,207.541c15.476,0,28.062,20.512,28.062,45.822
			c0,25.311-12.586,45.822-28.062,45.822h200.163v-0.941c1.865,0.564,3.729,0.941,5.687,0.941c15.476,0,28.062-20.511,28.062-45.822
			c0-25.31-12.586-45.822-28.062-45.822c-1.958,0-3.822,0.282-5.687,0.941v-0.941H108.665z M108.665,299.185"/>
	</g>
</g>
</svg>
