<?xml version="1.0" encoding="utf-8"?>
<!-- Generator: Adobe Illustrator 23.0.6, SVG Export Plug-In . SVG Version: 6.00 Build 0)  -->
<svg version="1.1" xmlns="http://www.w3.org/2000/svg" xmlns:xlink="http://www.w3.org/1999/xlink" x="0px" y="0px"
	 viewBox="0 0 500 500" style="enable-background:new 0 0 500 500;" xml:space="preserve">
<style type="text/css">
	.st0{fill:#FFFFFF;stroke:#FFFFFF;stroke-width:10;stroke-miterlimit:10;}
	.st1{fill:#FFED1F;}
	.st2{fill:#E32B43;}
</style>
<g id="border">
	<path class="st0" d="M454.7,403.9L266.2,77.4c-7.2-12.4-25.1-12.4-32.3,0L45.3,403.9c-7.2,12.4,1.8,28,16.2,28h377.1
		C452.9,431.9,461.9,416.4,454.7,403.9z"/>
</g>
<g id="object" xmlns:cc="http://creativecommons.org/ns#" xmlns:dc="http://purl.org/dc/elements/1.1/" xmlns:inkscape="http://www.inkscape.org/namespaces/inkscape" xmlns:rdf="http://www.w3.org/1999/02/22-rdf-syntax-ns#" xmlns:sodipodi="http://sodipodi.sourceforge.net/DTD/sodipodi-0.dtd" xmlns:svg="http://www.w3.org/2000/svg">
	<g>
		<path class="st1" d="M232,80.6L47.2,400.7c-8,13.9,2,31.2,18,31.2h369.6c16,0,26-17.3,18-31.2L268,80.6
			C260,66.7,240,66.7,232,80.6z"/>
		<path class="st2" d="M250,152.2c-21.2,0-38.4,19.6-38.4,43.8c0,73.8,17.2,133.6,38.4,133.6s38.4-59.8,38.4-133.6
			C288.4,171.8,271.2,152.2,250,152.2z"/>
		<circle class="st2" cx="250" cy="379.9" r="26.9"/>
	</g>
</g>
</svg>
