<?xml version="1.0" encoding="utf-8"?>
<!-- Generator: Adobe Illustrator 23.0.6, SVG Export Plug-In . SVG Version: 6.00 Build 0)  -->
<svg version="1.1" xmlns="http://www.w3.org/2000/svg" xmlns:xlink="http://www.w3.org/1999/xlink" x="0px" y="0px"
	 viewBox="0 0 500 500" style="enable-background:new 0 0 500 500;" xml:space="preserve">
<style type="text/css">
	.st0{fill:#FFFFFF;stroke:#FFFFFF;stroke-width:10;stroke-miterlimit:10;}
	.st1{fill:#409465;}
	.st2{fill:#46A370;}
	.st3{fill:#4AAB72;}
	.st4{fill:#4F4F4F;}
</style>
<g id="border">
	<path class="st0" d="M375.363,313.291c0.639-2.802,1.229-5.633,1.769-8.493c0.809-4.289,1.505-8.639,2.082-13.046
		c0.574-4.382,1.03-8.819,1.366-13.305h36.927V265.65h-36.313c0.042-1.853,0.07-3.711,0.07-5.578v0l0,0c0-0.004,0-0.008,0-0.012
		c0-1.545-0.014-3.085-0.043-4.62c-0.009-0.459-0.027-0.914-0.038-1.372c-0.026-1.08-0.051-2.161-0.091-3.236
		c-0.016-0.432-0.042-0.86-0.06-1.29c-0.047-1.099-0.093-2.199-0.154-3.293c-0.02-0.357-0.048-0.71-0.069-1.067
		c-0.07-1.163-0.142-2.327-0.228-3.484c-0.023-0.307-0.053-0.61-0.077-0.916c-0.095-1.204-0.192-2.408-0.304-3.605
		c-0.022-0.239-0.05-0.476-0.073-0.714c-0.122-1.261-0.249-2.521-0.39-3.773c-0.02-0.181-0.045-0.36-0.066-0.541
		c-0.15-1.307-0.307-2.611-0.478-3.909c-0.019-0.144-0.041-0.287-0.061-0.43c-0.178-1.333-0.364-2.663-0.564-3.986
		c-0.014-0.09-0.029-0.179-0.043-0.269c-0.209-1.376-0.428-2.747-0.661-4.112c-0.005-0.031-0.011-0.061-0.016-0.092
		c-0.242-1.42-0.497-2.834-0.764-4.241c-0.003-0.014-0.006-0.028-0.008-0.041c-0.245-1.29-0.499-2.575-0.765-3.854l25.052-25.052
		l-9.048-9.048l-19.541,19.541c-14.567-52.391-46.648-93.032-86.505-108.622l18.021-18.021l-9.048-9.048l-22.768,22.768
		c-7.303-1.718-14.811-2.623-22.474-2.623c-7.663,0-15.171,0.905-22.474,2.623l-22.768-22.768l-9.048,9.048l18.021,18.021
		c-39.857,15.59-71.938,56.231-86.505,108.622l-19.541-19.541l-9.048,9.048l25.052,25.052c-0.562,2.708-1.078,5.442-1.548,8.2
		c-0.001,0.008-0.003,0.016-0.004,0.025c-0.236,1.388-0.46,2.784-0.672,4.184c-0.01,0.066-0.021,0.13-0.031,0.196
		c-0.204,1.35-0.394,2.708-0.575,4.069c-0.016,0.116-0.034,0.231-0.049,0.347c-0.175,1.33-0.336,2.666-0.49,4.005
		c-0.017,0.149-0.037,0.296-0.054,0.445c-0.145,1.29-0.276,2.586-0.401,3.885c-0.019,0.201-0.043,0.401-0.062,0.603
		c-0.116,1.242-0.218,2.49-0.315,3.739c-0.02,0.261-0.046,0.52-0.066,0.782c-0.091,1.215-0.167,2.436-0.24,3.658
		c-0.018,0.298-0.041,0.594-0.058,0.892c-0.066,1.171-0.116,2.347-0.165,3.524c-0.015,0.354-0.036,0.705-0.049,1.059
		c-0.045,1.207-0.075,2.42-0.102,3.633c-0.007,0.325-0.021,0.649-0.027,0.974c-0.029,1.541-0.043,3.086-0.043,4.636
		c0,1.867,0.028,3.725,0.07,5.578H82.492v12.796h36.927c1.301,17.387,4.435,34.032,9.121,49.584l-29.904,29.904l9.048,9.048
		l25.418-25.418c21.746,57.867,65.929,97.471,116.897,97.471c11.327,0,22.32-1.956,32.805-5.634c2.097-0.736,4.174-1.54,6.229-2.412
		c2.055-0.871,4.089-1.81,6.099-2.814c2.01-1.004,3.998-2.072,5.961-3.204c0.982-0.566,1.957-1.148,2.926-1.745
		c1.938-1.195,3.852-2.452,5.738-3.769c4.717-3.294,9.268-6.966,13.633-10.986c4.365-4.02,8.542-8.389,12.512-13.077
		c0.794-0.938,1.579-1.888,2.356-2.851c1.554-1.926,3.074-3.902,4.559-5.926c2.227-3.036,4.374-6.181,6.437-9.428
		c1.375-2.165,2.713-4.375,4.012-6.629c1.299-2.254,2.559-4.551,3.779-6.89c3.657-7.011,6.953-14.397,9.85-22.108l25.418,25.418
		l9.048-9.048L371.46,328.03c0.234-0.778,0.474-1.553,0.7-2.336C373.335,321.63,374.404,317.494,375.363,313.291z"/>
</g>
<g id="object" xmlns:cc="http://creativecommons.org/ns#" xmlns:dc="http://purl.org/dc/elements/1.1/" xmlns:inkscape="http://www.inkscape.org/namespaces/inkscape" xmlns:rdf="http://www.w3.org/1999/02/22-rdf-syntax-ns#" xmlns:sodipodi="http://sodipodi.sourceforge.net/DTD/sodipodi-0.dtd" xmlns:svg="http://www.w3.org/2000/svg">
	<g>
		<ellipse class="st1" cx="250" cy="260.073" rx="131.265" ry="178.964"/>
		<path class="st2" d="M381.265,260.073c0-24.848-3.717-48.512-10.43-70.019C342.008,174.08,298.581,173.22,250,173.22
			c-48.581,0-92.008,0.86-120.834,16.833c-6.713,21.507-10.43,45.171-10.43,70.019c0,98.839,58.769,178.964,131.265,178.964
			S381.265,358.912,381.265,260.073z"/>
		<path class="st3" d="M381.265,260.073c0-24.848-3.717-48.512-10.43-70.019C342.008,174.08,298.581,173.22,250,173.22v265.816
			C322.496,439.036,381.265,358.912,381.265,260.073z"/>
		<path class="st4" d="M376.312,211.215l25.052-25.052l-9.048-9.048l-19.541,19.541
			C374.098,201.416,375.285,206.269,376.312,211.215z"/>
		<path class="st4" d="M128.54,328.03l-29.904,29.904l9.048,9.048l25.418-25.418C131.447,337.158,129.929,332.64,128.54,328.03z"/>
		<path class="st4" d="M118.805,265.651H82.492v12.796h36.927C119.104,274.224,118.902,269.955,118.805,265.651z"/>
		<path class="st4" d="M127.226,196.655l-19.541-19.541l-9.048,9.048l25.052,25.052
			C124.715,206.269,125.902,201.416,127.226,196.655z"/>
		<path class="st4" d="M227.526,83.732l-22.768-22.768l-9.048,9.048l18.021,18.021C218.234,86.272,222.838,84.835,227.526,83.732z"
			/>
		<path class="st4" d="M286.269,88.033l18.021-18.021l-9.048-9.048l-22.768,22.768C277.162,84.835,281.766,86.272,286.269,88.033z"
			/>
		<path class="st4" d="M371.46,328.03c-1.389,4.609-2.906,9.128-4.562,13.534l25.418,25.418l9.048-9.048L371.46,328.03z"/>
		<path class="st4" d="M381.195,265.651c-0.097,4.305-0.299,8.573-0.615,12.796h36.927v-12.796H381.195z"/>
	</g>
</g>
</svg>
