<?xml version="1.0" encoding="utf-8"?>
<!-- Generator: Adobe Illustrator 23.0.6, SVG Export Plug-In . SVG Version: 6.00 Build 0)  -->
<svg version="1.1" xmlns="http://www.w3.org/2000/svg" xmlns:xlink="http://www.w3.org/1999/xlink" x="0px" y="0px"
	 viewBox="0 0 500 500" style="enable-background:new 0 0 500 500;" xml:space="preserve">
<style type="text/css">
	.st0{fill:#FFFFFF;stroke:#FFFFFF;stroke-width:10;stroke-miterlimit:10;}
	.st1{fill:#DE3131;}
</style>
<g id="border">
	<path class="st0" d="M250,47.9C138.4,47.9,47.9,138.4,47.9,250S138.4,452.1,250,452.1S452.1,361.6,452.1,250S361.6,47.9,250,47.9z
		 M250,94.4c34.1,0,65.7,11,91.3,29.6L124,341.3c-18.6-25.6-29.6-57.2-29.6-91.3C94.4,164.1,164.1,94.4,250,94.4z M250,405.6
		c-34.1,0-65.7-11-91.3-29.6L376,158.7c18.6,25.6,29.6,57.2,29.6,91.3C405.6,335.9,335.9,405.6,250,405.6z"/>
</g>
<g id="object" xmlns:cc="http://creativecommons.org/ns#" xmlns:dc="http://purl.org/dc/elements/1.1/" xmlns:inkscape="http://www.inkscape.org/namespaces/inkscape" xmlns:rdf="http://www.w3.org/1999/02/22-rdf-syntax-ns#" xmlns:sodipodi="http://sodipodi.sourceforge.net/DTD/sodipodi-0.dtd" xmlns:svg="http://www.w3.org/2000/svg">
	<path class="st1" d="M250,47.9C138.4,47.9,47.9,138.4,47.9,250S138.4,452.1,250,452.1S452.1,361.6,452.1,250S361.6,47.9,250,47.9z
		 M250,94.4c34.1,0,65.7,11,91.3,29.6L124,341.3c-18.6-25.6-29.6-57.2-29.6-91.3C94.4,164.1,164.1,94.4,250,94.4z M250,405.6
		c-34.1,0-65.7-11-91.3-29.6L376,158.7c18.6,25.6,29.6,57.2,29.6,91.3C405.6,335.9,335.9,405.6,250,405.6z"/>
</g>
</svg>
