<?xml version="1.0" encoding="utf-8"?>
<!-- Generator: Adobe Illustrator 23.0.6, SVG Export Plug-In . SVG Version: 6.00 Build 0)  -->
<svg version="1.1" xmlns="http://www.w3.org/2000/svg" xmlns:xlink="http://www.w3.org/1999/xlink" x="0px" y="0px"
	 viewBox="0 0 500 500" style="enable-background:new 0 0 500 500;" xml:space="preserve">
<style type="text/css">
	.st0{fill:#FFFFFF;stroke:#FFFFFF;stroke-width:10;stroke-miterlimit:10;}
	.st1{fill:#5DAB5B;}
</style>
<g id="border">
	<path class="st0" d="M455.3,61.5C395.6,69.1,300.9,153.7,222,276c-6.1,9.4-11.9,18.8-17.4,28.1c0,0,0,0-0.1-0.1
		c-0.1,0.1-0.1,0.2-0.2,0.3c-12.8-12.8-26.6-25.6-41.2-38.1c-6.8-5.8-13.6-11.4-20.3-16.9L40.2,314.2c46.9,22,87.8,48.2,119.6,75.3
		c0-0.1,0.1-0.2,0.1-0.3c19.1,16.3,35,33,46.8,49.3c5.2-7.7,10.5-15.4,16-23.2c12-17.1,24.2-33.5,36.4-49.1c0,0,0.1,0.1,0.1,0.1
		c81.4-104.5,162.3-173.5,200.6-170.6L455.3,61.5z"/>
</g>
<g id="object" xmlns:cc="http://creativecommons.org/ns#" xmlns:dc="http://purl.org/dc/elements/1.1/" xmlns:inkscape="http://www.inkscape.org/namespaces/inkscape" xmlns:rdf="http://www.w3.org/1999/02/22-rdf-syntax-ns#" xmlns:sodipodi="http://sodipodi.sourceforge.net/DTD/sodipodi-0.dtd" xmlns:svg="http://www.w3.org/2000/svg">
	<path class="st1" d="M455.3,61.5C395.6,69.1,300.9,153.7,222,276c-6.1,9.4-11.9,18.8-17.4,28.1c0,0,0,0-0.1-0.1
		c-0.1,0.1-0.1,0.2-0.2,0.3c-12.8-12.8-26.6-25.6-41.2-38.1c-6.8-5.8-13.6-11.4-20.3-16.9L40.2,314.2c46.9,22,87.8,48.2,119.6,75.3
		c0-0.1,0.1-0.2,0.1-0.3c19.1,16.3,35,33,46.8,49.3c5.2-7.7,10.5-15.4,16-23.2c12-17.1,24.2-33.5,36.4-49.1c0,0,0.1,0.1,0.1,0.1
		c81.4-104.5,162.3-173.5,200.6-170.6L455.3,61.5z"/>
</g>
</svg>
