<?xml version="1.0" encoding="utf-8"?>
<!-- Generator: Adobe Illustrator 23.0.6, SVG Export Plug-In . SVG Version: 6.00 Build 0)  -->
<svg version="1.1" xmlns="http://www.w3.org/2000/svg" xmlns:xlink="http://www.w3.org/1999/xlink" x="0px" y="0px"
	 viewBox="0 0 500 500" style="enable-background:new 0 0 500 500;" xml:space="preserve">
<style type="text/css">
	.st0{fill:#FFFFFF;stroke:#FFFFFF;stroke-width:10;stroke-miterlimit:10;}
	.st1{fill:#522F17;}
	.st2{fill:#FFE7BA;}
	.st3{fill:#AB2323;}
	.st4{fill:#2B2B2B;}
	.st5{fill:#E0755A;}
</style>
<g id="border">
	<g>
		<path class="st0" d="M249.327,259.845c59.496,0,107.727-48.228,107.732-107.723c0-0.003,0-0.006,0-0.009
			c0-24.172-7.961-46.484-21.403-64.458c-19.646-26.27-51.002-43.275-86.33-43.275c-59.499,0-107.732,48.233-107.732,107.732
			S189.828,259.845,249.327,259.845z"/>
		<path class="st0" d="M249.327,267.845c-14.467-0.002-28.786-2.918-42.102-8.574c-31.47,35.565-54.704,108.667-62.602,196.967
			h209.174v-2.637c-8.181-87.318-31.382-159.318-62.621-194.336C277.94,264.89,263.71,267.808,249.327,267.845z"/>
	</g>
</g>
<g id="object" xmlns:cc="http://creativecommons.org/ns#" xmlns:dc="http://purl.org/dc/elements/1.1/" xmlns:inkscape="http://www.inkscape.org/namespaces/inkscape" xmlns:rdf="http://www.w3.org/1999/02/22-rdf-syntax-ns#" xmlns:sodipodi="http://sodipodi.sourceforge.net/DTD/sodipodi-0.dtd" xmlns:svg="http://www.w3.org/2000/svg">
	<g>
		<path class="st1" d="M250.028,44.071C190.971,44.098,142.944,91.666,142.35,150.72c12.046,2.568,24.578,3.887,37.186,3.916
			c43.803-0.043,84.498-15.608,107.738-41.209c12.888,22.336,38.642,39.171,70.113,45.832c0.21-2.48,0.335-4.966,0.373-7.455
			C357.76,92.305,309.527,44.071,250.028,44.071z"/>
		<path class="st2" d="M142.295,151.804c0,59.499,48.233,107.732,107.732,107.732c59.496,0,107.727-48.228,107.732-107.723
			c-0.038,2.485-0.163,4.969-0.373,7.446c-31.471-6.661-57.226-23.496-70.113-45.832c-23.241,25.601-63.936,41.166-107.738,41.209
			c-12.608-0.029-25.14-1.348-37.186-3.916"/>
		<path inkscape:connector-curvature="0" class="st3" d="M290.523,259.593c-13.237,5.625-27.467,8.542-41.85,8.58
			c-14.467-0.002-28.786-2.918-42.102-8.574c-31.47,35.565-54.704,108.667-62.602,196.967h209.174v-2.637
			C344.963,366.611,321.762,294.611,290.523,259.593z"/>
		<path class="st2" d="M290.536,259.608c-0.002-0.002-0.003-0.004-0.005-0.006c-0.001-0.001-0.002-0.003-0.003-0.004h-0.019
			c-0.001,0-0.001,0-0.002,0.001c-4.135,1.756-8.366,3.248-12.669,4.471c-0.011,0.003-0.023,0.006-0.034,0.009
			c-0.849,0.241-1.7,0.472-2.554,0.692c-0.165,0.042-0.331,0.079-0.496,0.121c-1.57,0.396-3.147,0.762-4.733,1.087
			c-0.142,0.029-0.285,0.054-0.428,0.082c-0.734,0.147-1.469,0.292-2.206,0.424c-0.229,0.041-0.458,0.075-0.687,0.114
			c-1.534,0.265-3.073,0.502-4.618,0.7c-0.073,0.009-0.147,0.016-0.221,0.026c-0.814,0.103-1.629,0.198-2.446,0.282
			c-0.554,0.057-1.11,0.102-1.665,0.15c-0.337,0.029-0.673,0.065-1.01,0.091c-0.427,0.033-0.856,0.056-1.284,0.084
			c-2.256,0.148-4.518,0.234-6.784,0.24c-14.467-0.002-28.786-2.918-42.102-8.574l41.985,64.982L290.536,259.608z"/>
		<path class="st4" d="M216.732,275.323l31.825,49.257l31.834-49.271c-10.251,3.189-20.941,4.834-31.718,4.863
			C237.822,280.171,227.055,278.53,216.732,275.323z"/>
		<g>
			<polygon class="st5" points="180.673,328.581 180.673,339.899 201.835,354.219 222.997,339.899 222.997,328.581 			"/>
			<polygon class="st5" points="248.557,324.581 197.473,294.055 206.572,259.598 			"/>
			<polygon class="st5" points="248.557,324.581 299.641,294.055 290.542,259.598 			"/>
			<polygon class="st5" points="274.422,328.581 274.422,339.899 295.584,354.219 316.745,339.899 316.745,328.581 			"/>
		</g>
	</g>
</g>
</svg>
