<?xml version="1.0" encoding="utf-8"?>
<!-- Generator: Adobe Illustrator 23.0.6, SVG Export Plug-In . SVG Version: 6.00 Build 0)  -->
<svg version="1.1" xmlns="http://www.w3.org/2000/svg" xmlns:xlink="http://www.w3.org/1999/xlink" x="0px" y="0px"
	 viewBox="0 0 500 500" style="enable-background:new 0 0 500 500;" xml:space="preserve">
<style type="text/css">
	.st0{fill:none;stroke:#FFFFFF;stroke-width:10;stroke-miterlimit:10;}
	.st1{fill:#7F7D80;}
	.st2{fill:#6B6B6B;}
	.st3{fill:#FFF86E;}
	.st4{fill:#C3D7D9;}
</style>
<g id="border">
	<path class="st0" d="M440.242,302.364v-94.809l-126.879,88.436v-88.436L183.228,298.26l-23.2-138.592h-13.954
		c0.999-1.702,1.544-3.539,1.544-5.455c0-3.348-1.664-6.454-4.505-9.021c1.485,0.074,2.986,0.118,4.505,0.118
		c27.42,0,49.648-12.345,49.648-27.573c0-3.218-1.002-6.305-2.826-9.176c40.141-1.418,71.907-19.772,71.907-42.218
		c0-23.372-34.431-42.317-76.905-42.317c-42.473,0-76.904,18.945-76.904,42.317c0,9.763,6.025,18.747,16.119,25.907
		c-18.011,4.138-30.686,13.989-30.686,25.487c0,8.411,6.79,15.938,17.482,20.995c-11.151,1.76-19.399,8.023-19.399,15.481
		c0,1.916,0.546,3.753,1.544,5.455H83.645L59.649,302.364v161.609H440.35V302.364H440.242z"/>
</g>
<g id="object">
	<g>
		<polygon class="st1" points="440.242,302.364 440.242,207.555 313.363,295.991 313.363,207.555 183.228,298.26 160.028,159.668 
			83.645,159.668 59.649,302.364 59.649,463.973 440.35,463.973 440.35,302.364 		"/>
		<rect x="104.83" y="344.625" class="st2" width="97.14" height="75.103"/>
		<rect x="115.525" y="353.905" class="st3" width="33.454" height="24.23"/>
		<rect x="157.82" y="353.905" class="st3" width="33.455" height="24.23"/>
		<rect x="115.525" y="386.218" class="st3" width="33.454" height="24.23"/>
		<rect x="157.82" y="386.218" class="st3" width="33.455" height="24.23"/>
		<rect x="298.03" y="344.625" class="st2" width="97.14" height="75.103"/>
		<rect x="308.725" y="353.905" class="st3" width="33.454" height="24.23"/>
		<rect x="351.022" y="353.905" class="st3" width="33.454" height="24.23"/>
		<rect x="308.725" y="386.218" class="st3" width="33.454" height="24.23"/>
		<rect x="351.022" y="386.218" class="st3" width="33.454" height="24.23"/>
		<path class="st4" d="M96.054,154.213c0,1.916,0.546,3.753,1.544,5.456h48.476c0.999-1.703,1.544-3.54,1.544-5.456
			c0-3.348-1.664-6.454-4.505-9.021c1.485,0.075,2.986,0.119,4.505,0.119c27.42,0,49.648-12.346,49.648-27.574
			c0-3.218-1.002-6.304-2.826-9.175c40.141-1.419,71.907-19.773,71.907-42.219c0-23.371-34.431-42.317-76.905-42.317
			c-42.473,0-76.904,18.946-76.904,42.317c0,9.764,6.025,18.747,16.119,25.908c-18.011,4.138-30.686,13.988-30.686,25.486
			c0,8.411,6.79,15.938,17.482,20.996C104.302,140.492,96.054,146.755,96.054,154.213"/>
	</g>
</g>
</svg>
