<?xml version="1.0" encoding="utf-8"?>
<!-- Generator: Adobe Illustrator 23.0.6, SVG Export Plug-In . SVG Version: 6.00 Build 0)  -->
<svg version="1.1" xmlns="http://www.w3.org/2000/svg" xmlns:xlink="http://www.w3.org/1999/xlink" x="0px" y="0px"
	 viewBox="0 0 500 500" style="enable-background:new 0 0 500 500;" xml:space="preserve">
<style type="text/css">
	.st0{fill:#FFFFFF;stroke:#FFFFFF;stroke-width:10;stroke-miterlimit:10;}
	.st1{fill:#D6D6D6;}
	.st2{fill:#EDFBFF;}
	.st3{fill:#686E6E;}
	.st4{fill:none;stroke:#5C6161;stroke-width:5;stroke-miterlimit:10;}
	.st5{fill:#71BCD9;}
</style>
<g id="border">
	<polygon class="st0" points="250,47.673 153.795,115.085 153.795,246.033 58.087,246.033 58.087,452.327 441.913,452.327 
		441.913,246.033 345.213,246.033 345.213,115.085 	"/>
</g>
<g id="object" inkscape:export-filename="C:\Users\acd-kimura-y\Desktop\譁ｭ励↑縺予png\user_male_blue.png" inkscape:export-xdpi="90" inkscape:export-ydpi="90" inkscape:version="0.91 r13725" sodipodi:docname="user_male_blue.svg" xmlns:cc="http://creativecommons.org/ns#" xmlns:dc="http://purl.org/dc/elements/1.1/" xmlns:inkscape="http://www.inkscape.org/namespaces/inkscape" xmlns:rdf="http://www.w3.org/1999/02/22-rdf-syntax-ns#" xmlns:sodipodi="http://sodipodi.sourceforge.net/DTD/sodipodi-0.dtd" xmlns:svg="http://www.w3.org/2000/svg">
	<g>
		<polygon class="st1" points="250,47.673 153.795,115.085 153.795,246.033 58.087,246.033 58.087,452.327 441.913,452.327 
			441.913,246.033 345.213,246.033 345.213,115.085 		"/>
		<circle class="st2" cx="250" cy="159.44" r="54.923"/>
		<circle class="st3" cx="250" cy="159.44" r="3.003"/>
		<line class="st4" x1="249.504" y1="159.44" x2="249.504" y2="116.738"/>
		<line class="st4" x1="252.083" y1="159.44" x2="287.138" y2="159.44"/>
		<rect x="101.861" y="276.941" class="st5" width="51.934" height="51.934"/>
		<rect x="223.537" y="276.941" class="st5" width="51.934" height="51.934"/>
		<rect x="345.213" y="276.941" class="st5" width="51.934" height="51.934"/>
		<rect x="101.861" y="364.742" class="st5" width="51.934" height="51.934"/>
		<rect x="223.537" y="364.742" class="st5" width="51.934" height="51.934"/>
		<rect x="345.213" y="364.742" class="st5" width="51.934" height="51.934"/>
	</g>
</g>
</svg>
