<?xml version="1.0" encoding="utf-8"?>
<!-- Generator: Adobe Illustrator 23.0.6, SVG Export Plug-In . SVG Version: 6.00 Build 0)  -->
<svg version="1.1" xmlns="http://www.w3.org/2000/svg" xmlns:xlink="http://www.w3.org/1999/xlink" x="0px" y="0px"
	 viewBox="0 0 500 500" style="enable-background:new 0 0 500 500;" xml:space="preserve">
<style type="text/css">
	.st0{fill:#FFFFFF;stroke:#FFFFFF;stroke-width:10;stroke-miterlimit:10;}
	.st1{fill:#8ECDFC;}
	.st2{fill:#A8F1E5;}
</style>
<g id="border">
	<path class="st0" d="M421.869,319.199V55.527H250.694h-1.389H78.131v263.672h154.162v86.872
		c-52.568,0.972-95.413,5.417-115.274,11.458c-2.153,2.292-2.917,5-2.292,8.264c0.556,3.056,2.292,5.625,5.069,7.777
		c23.402,6.32,72.289,10.694,129.51,10.903c0.208,0,0.417,0,0.694,0c0.208,0,0.486,0,0.694,0
		c57.151-0.209,106.108-4.583,129.51-10.903c2.778-2.153,4.444-4.722,5.069-7.777c0.625-3.264-0.208-5.972-2.292-8.264
		c-19.861-6.041-62.776-10.486-115.274-11.458v-86.872H421.869z"/>
</g>
<g id="object" xmlns:cc="http://creativecommons.org/ns#" xmlns:dc="http://purl.org/dc/elements/1.1/" xmlns:inkscape="http://www.inkscape.org/namespaces/inkscape" xmlns:rdf="http://www.w3.org/1999/02/22-rdf-syntax-ns#" xmlns:sodipodi="http://sodipodi.sourceforge.net/DTD/sodipodi-0.dtd" xmlns:svg="http://www.w3.org/2000/svg">
	<g>
		<path d="M421.869,55.527v263.672H267.708v86.872c52.498,0.972,95.413,5.417,115.274,11.458c2.083,2.292,2.917,5,2.292,8.264
			c-0.625,3.056-2.292,5.625-5.069,7.777c-23.402,6.32-72.359,10.694-129.51,10.903l0,0c-0.208,0-0.486,0-0.694,0
			c-0.278,0-0.486,0-0.694,0l0,0c-57.22-0.209-106.108-4.583-129.51-10.903c-2.778-2.153-4.514-4.722-5.069-7.777
			c-0.625-3.264,0.139-5.972,2.292-8.264c19.86-6.041,62.706-10.486,115.274-11.458v-86.872H78.131V55.527h171.175h1.389H421.869z"
			/>
		<path class="st1" d="M97.871,73.235h298.438c0.82,0,1.395,0.789,1.395,1.775v219.968c0,0.987-0.574,1.776-1.395,1.776H97.871
			c-0.82,0-1.477-0.789-1.477-1.776V75.01C96.394,74.024,97.05,73.235,97.871,73.235L97.871,73.235z"/>
		<path class="st2" d="M115.016,73.235l282.688,190.474V75.01c0-0.986-0.574-1.775-1.395-1.775H115.016z"/>
	</g>
</g>
</svg>
