<?xml version="1.0" encoding="utf-8"?>
<!-- Generator: Adobe Illustrator 23.0.6, SVG Export Plug-In . SVG Version: 6.00 Build 0)  -->
<svg version="1.1" xmlns="http://www.w3.org/2000/svg" xmlns:xlink="http://www.w3.org/1999/xlink" x="0px" y="0px"
	 viewBox="0 0 500 500" style="enable-background:new 0 0 500 500;" xml:space="preserve">
<style type="text/css">
	.st0{fill:#FFFFFF;stroke:#FFFFFF;stroke-width:10;stroke-miterlimit:10;}
	.st1{fill:#242424;}
	.st2{fill:#7DACEB;}
	.st3{fill:#B3E7FF;}
</style>
<g id="border">
	<polygon class="st0" points="50.6,171.747 50.6,297.087 72.464,328.253 228.136,328.253 250,297.087 271.864,328.253 
		427.536,328.253 449.4,297.087 449.4,171.747 	"/>
</g>
<g id="object" xmlns:cc="http://creativecommons.org/ns#" xmlns:dc="http://purl.org/dc/elements/1.1/" xmlns:inkscape="http://www.inkscape.org/namespaces/inkscape" xmlns:rdf="http://www.w3.org/1999/02/22-rdf-syntax-ns#" xmlns:sodipodi="http://sodipodi.sourceforge.net/DTD/sodipodi-0.dtd" xmlns:svg="http://www.w3.org/2000/svg">
	<g>
		<polygon class="st1" points="50.6,171.747 50.6,297.087 72.464,328.253 228.136,328.253 250,297.087 271.864,328.253 
			427.536,328.253 449.4,297.087 449.4,171.747 		"/>
		<polygon class="st2" points="69.204,197.824 69.204,281.395 89.028,302.176 223.617,302.176 250,270.463 276.383,302.176 
			410.972,302.176 430.796,281.395 430.796,197.824 		"/>
		<polygon class="st3" points="430.796,197.824 188.479,197.824 391.507,302.176 410.972,302.176 430.796,281.396 		"/>
	</g>
</g>
</svg>
