<?xml version="1.0" encoding="utf-8"?>
<!-- Generator: Adobe Illustrator 23.0.6, SVG Export Plug-In . SVG Version: 6.00 Build 0)  -->
<svg version="1.1" xmlns="http://www.w3.org/2000/svg" xmlns:xlink="http://www.w3.org/1999/xlink" x="0px" y="0px"
	 viewBox="0 0 500 500" style="enable-background:new 0 0 500 500;" xml:space="preserve">
<style type="text/css">
	.st0{fill:#FFFFFF;stroke:#FFFFFF;stroke-width:10;stroke-miterlimit:10;}
	.st1{fill:#575757;}
	.st2{fill:#D00000;}
</style>
<g id="border">
	<path class="st0" d="M410.193,275.06h-7.535c-6.266,0-11.345,5.08-11.345,11.345v101.522c0,6.266,5.08,11.345,11.345,11.345h12.159
		c6.266,0,11.345-5.08,11.345-11.345v-1.71h12.953c2.778,0,5.03-2.252,5.03-5.03v-94.042c0-2.778-2.252-5.03-5.03-5.03h-14.124
		l-8.763-17.301v-14.966h-0.03c-0.075-2.981-0.241-5.96-0.521-8.931v-1.654c-2.003-22.193-9.681-43.693-22.454-62.876
		c-2.387-3.594-4.945-7.097-7.668-10.499c-0.512-0.645-1.03-1.286-1.554-1.923c-2.701-3.261-5.552-6.421-8.547-9.474
		c-0.67-0.687-1.348-1.369-2.032-2.046c-2.964-2.908-6.059-5.709-9.276-8.398c-0.859-0.724-1.727-1.439-2.604-2.147
		c-3.145-2.518-6.398-4.928-9.752-7.226c-1.088-0.752-2.187-1.491-3.297-2.219c-3.274-2.128-6.635-4.149-10.077-6.059
		c-1.308-0.732-2.628-1.448-3.959-2.147c-3.345-1.742-6.758-3.381-10.233-4.911c-1.559-0.693-3.129-1.364-4.712-2.014
		c-3.346-1.358-6.742-2.618-10.182-3.777c-1.816-0.619-3.643-1.209-5.482-1.771c-3.275-0.987-6.585-1.883-9.923-2.687
		c-2.107-0.515-4.225-0.994-6.353-1.436c-3.152-0.642-6.325-1.203-9.514-1.681c-2.356-0.361-4.721-0.677-7.093-0.948
		c-2.988-0.33-5.986-0.589-8.99-0.775c-3.93-0.298-7.87-0.472-11.814-0.522c-4.823,0.034-9.641,0.253-14.442,0.658
		c-2.307,0.204-4.608,0.451-6.904,0.74c-3.306,0.356-6.599,0.8-9.875,1.332c-1.904,0.348-3.801,0.725-5.69,1.132
		c-3.608,0.707-7.189,1.521-10.736,2.44c-1.521,0.425-3.034,0.87-4.54,1.334c-3.84,1.107-7.633,2.337-11.371,3.689
		c-1.159,0.445-2.312,0.901-3.459,1.369c-4.009,1.55-7.947,3.239-11.805,5.063c-0.799,0.398-1.595,0.802-2.387,1.212
		c-4.129,2.037-8.158,4.229-12.076,6.571c-0.457,0.286-0.913,0.575-1.367,0.866c-4.161,2.549-8.189,5.265-12.07,8.14
		c-0.21,0.163-0.42,0.326-0.629,0.49c-4.069,3.051-7.969,6.274-11.688,9.658c-0.019,0.019-0.038,0.037-0.057,0.056
		c-9.456,8.643-17.677,18.28-24.477,28.696h-0.063c-14.491,22.093-22.205,47.143-22.413,72.676h-0.016v14.328l-9.086,17.939H60.885
		c-2.778,0-5.03,2.252-5.03,5.03v94.042c0,2.778,2.252,5.03,5.03,5.03h12.953v1.71c0,6.266,5.08,11.345,11.345,11.345h12.159
		c6.266,0,11.345-5.08,11.345-11.345V286.405c0-6.266-5.08-11.345-11.345-11.345h-7.212v-14.302h0.016
		c0.2-25.533,7.635-50.583,21.599-72.676h0.061c6.553-10.416,14.475-20.053,23.587-28.696c0.018-0.019,0.037-0.037,0.055-0.056
		c3.583-3.383,7.342-6.606,11.263-9.658c0.202-0.164,0.404-0.327,0.606-0.49c3.74-2.875,7.621-5.591,11.631-8.14
		c0.438-0.291,0.877-0.579,1.317-0.866c3.775-2.341,7.658-4.534,11.637-6.571c0.763-0.41,1.53-0.814,2.301-1.212
		c3.718-1.825,7.513-3.514,11.376-5.063c1.105-0.468,2.217-0.924,3.333-1.369c3.603-1.352,7.258-2.582,10.958-3.689
		c1.451-0.464,2.91-0.909,4.375-1.334c3.418-0.919,6.869-1.732,10.346-2.44c1.82-0.407,3.648-0.784,5.483-1.132
		c3.157-0.531,6.33-0.976,9.516-1.332c2.212-0.289,4.43-0.536,6.653-0.74c4.627-0.405,9.27-0.624,13.917-0.658
		c3.8,0.05,7.598,0.224,11.385,0.522c2.895,0.186,5.784,0.445,8.663,0.775c2.286,0.271,4.565,0.587,6.835,0.948
		c3.073,0.478,6.131,1.039,9.168,1.681c2.051,0.441,4.092,0.92,6.122,1.436c3.217,0.804,6.406,1.7,9.563,2.687
		c1.772,0.562,3.534,1.152,5.283,1.771c3.315,1.159,6.588,2.418,9.812,3.777c1.525,0.649,3.039,1.32,4.541,2.014
		c3.349,1.531,6.638,3.169,9.861,4.911c1.283,0.699,2.554,1.415,3.815,2.147c3.317,1.91,6.555,3.931,9.711,6.059
		c1.069,0.727,2.128,1.467,3.177,2.219c3.232,2.298,6.366,4.708,9.397,7.226c0.845,0.707,1.681,1.423,2.51,2.147
		c3.1,2.689,6.082,5.49,8.939,8.398c0.66,0.676,1.312,1.358,1.958,2.046c2.886,3.053,5.634,6.213,8.237,9.474
		c0.505,0.637,1.004,1.278,1.497,1.923c2.624,3.402,5.09,6.905,7.39,10.499c12.309,19.183,19.708,40.683,21.638,62.876v1.654
		c0.27,2.972,0.43,5.95,0.502,8.931h0.029v6.312V275.06z"/>
</g>
<g id="object" inkscape:export-filename="C:\Users\acd-kimura-y\Desktop\譁ｭ励↑縺予png\user_male_blue.png" inkscape:export-xdpi="90" inkscape:export-ydpi="90" inkscape:version="0.91 r13725" sodipodi:docname="user_male_blue.svg" xmlns:cc="http://creativecommons.org/ns#" xmlns:dc="http://purl.org/dc/elements/1.1/" xmlns:inkscape="http://www.inkscape.org/namespaces/inkscape" xmlns:rdf="http://www.w3.org/1999/02/22-rdf-syntax-ns#" xmlns:sodipodi="http://sodipodi.sourceforge.net/DTD/sodipodi-0.dtd" xmlns:svg="http://www.w3.org/2000/svg">
	<g>
		<path class="st1" d="M97.342,275.06H86.045l-5.608,11.072c0.067,0.327,0.102,0.666,0.102,1.014v94.042
			c0,2.778-2.252,5.03-5.03,5.03h-1.672v1.71c0,6.266,5.08,11.345,11.345,11.345h12.159c6.266,0,11.345-5.08,11.345-11.345V286.405
			C108.688,280.139,103.608,275.06,97.342,275.06z"/>
		<path class="st1" d="M424.491,386.218c-2.778,0-5.03-2.252-5.03-5.03v-94.042c0-0.347,0.035-0.686,0.102-1.014l-5.608-11.072
			h-11.297c-6.266,0-11.345,5.08-11.345,11.345v101.522c0,6.266,5.08,11.345,11.345,11.345h12.159
			c6.266,0,11.345-5.08,11.345-11.345v-1.71H424.491z"/>
		<path class="st2" d="M439.115,282.115h-14.124l-8.763-17.301v-14.966h-0.03c-0.075-2.981-0.241-5.96-0.521-8.931v-1.654
			c-2.003-22.193-9.681-43.693-22.454-62.876c-2.387-3.594-4.945-7.097-7.668-10.499c-0.512-0.645-1.03-1.286-1.554-1.923
			c-2.701-3.261-5.552-6.421-8.547-9.474c-0.67-0.687-1.348-1.369-2.032-2.046c-2.964-2.908-6.059-5.709-9.276-8.398
			c-0.859-0.724-1.727-1.439-2.604-2.147c-3.145-2.518-6.398-4.928-9.752-7.226c-1.088-0.752-2.187-1.491-3.297-2.219
			c-3.274-2.128-6.635-4.149-10.077-6.059c-1.308-0.732-2.628-1.448-3.959-2.147c-3.345-1.742-6.758-3.381-10.233-4.911
			c-1.559-0.693-3.129-1.364-4.712-2.014c-3.346-1.358-6.742-2.618-10.182-3.777c-1.816-0.619-3.643-1.209-5.482-1.771
			c-3.275-0.987-6.585-1.883-9.923-2.687c-2.107-0.515-4.225-0.994-6.353-1.436c-3.152-0.642-6.325-1.203-9.514-1.681
			c-2.356-0.361-4.721-0.677-7.093-0.948c-2.988-0.33-5.986-0.589-8.99-0.775c-3.93-0.298-7.87-0.472-11.814-0.522
			c-4.823,0.034-9.641,0.253-14.442,0.658c-2.307,0.204-4.608,0.451-6.904,0.74c-3.306,0.356-6.599,0.8-9.875,1.332
			c-1.904,0.348-3.801,0.725-5.69,1.132c-3.608,0.707-7.189,1.521-10.736,2.44c-1.521,0.425-3.034,0.87-4.54,1.334
			c-3.84,1.107-7.633,2.337-11.371,3.689c-1.159,0.445-2.312,0.901-3.459,1.369c-4.009,1.55-7.947,3.239-11.805,5.063
			c-0.799,0.398-1.595,0.802-2.387,1.212c-4.129,2.037-8.158,4.229-12.076,6.571c-0.457,0.286-0.913,0.575-1.367,0.866
			c-4.161,2.549-8.189,5.265-12.07,8.14c-0.21,0.163-0.42,0.326-0.629,0.49c-4.069,3.051-7.969,6.274-11.688,9.658
			c-0.019,0.019-0.038,0.037-0.057,0.056c-9.456,8.643-17.677,18.28-24.477,28.696h-0.063
			c-14.491,22.093-22.205,47.143-22.413,72.676h-0.016v14.328l-9.086,17.939H60.885c-2.778,0-5.03,2.252-5.03,5.03v94.042
			c0,2.778,2.252,5.03,5.03,5.03h14.625c2.778,0,5.03-2.252,5.03-5.03v-94.042c0-0.347-0.035-0.686-0.102-1.014l5.608-11.072h4.085
			v-14.302h0.016c0.2-25.533,7.635-50.583,21.599-72.676h0.061c6.553-10.416,14.475-20.053,23.587-28.696
			c0.018-0.019,0.037-0.037,0.055-0.056c3.583-3.383,7.342-6.606,11.263-9.658c0.202-0.164,0.404-0.327,0.606-0.49
			c3.74-2.875,7.621-5.591,11.631-8.14c0.438-0.291,0.877-0.579,1.317-0.866c3.775-2.341,7.658-4.534,11.637-6.571
			c0.763-0.41,1.53-0.814,2.301-1.212c3.718-1.825,7.513-3.514,11.376-5.063c1.105-0.468,2.217-0.924,3.333-1.369
			c3.603-1.352,7.258-2.582,10.958-3.689c1.451-0.464,2.91-0.909,4.375-1.334c3.418-0.919,6.869-1.732,10.346-2.44
			c1.82-0.407,3.648-0.784,5.483-1.132c3.157-0.531,6.33-0.976,9.516-1.332c2.212-0.289,4.43-0.536,6.653-0.74
			c4.627-0.405,9.27-0.624,13.917-0.658c3.8,0.05,7.598,0.224,11.385,0.522c2.895,0.186,5.784,0.445,8.663,0.775
			c2.286,0.271,4.565,0.587,6.835,0.948c3.073,0.478,6.131,1.039,9.168,1.681c2.051,0.441,4.092,0.92,6.122,1.436
			c3.217,0.804,6.406,1.7,9.563,2.687c1.772,0.562,3.534,1.152,5.283,1.771c3.315,1.159,6.588,2.418,9.812,3.777
			c1.525,0.649,3.039,1.32,4.541,2.014c3.349,1.531,6.638,3.169,9.861,4.911c1.283,0.699,2.554,1.415,3.815,2.147
			c3.317,1.91,6.555,3.931,9.711,6.059c1.069,0.727,2.128,1.467,3.177,2.219c3.232,2.298,6.366,4.708,9.397,7.226
			c0.845,0.707,1.681,1.423,2.51,2.147c3.1,2.689,6.082,5.49,8.939,8.398c0.66,0.676,1.312,1.358,1.958,2.046
			c2.886,3.053,5.634,6.213,8.237,9.474c0.505,0.637,1.004,1.278,1.497,1.923c2.624,3.402,5.09,6.905,7.39,10.499
			c12.309,19.183,19.708,40.683,21.638,62.876v1.654c0.27,2.972,0.43,5.95,0.502,8.931h0.029v6.312l-0.227,0.115l0.227,0.448v7.427
			h3.762l2.274,4.49l0,0l3.334,6.582c-0.067,0.327-0.102,0.666-0.102,1.014v94.042c0,2.778,2.252,5.03,5.03,5.03h14.625
			c2.778,0,5.03-2.252,5.03-5.03v-94.042C444.146,284.367,441.893,282.115,439.115,282.115z"/>
	</g>
</g>
</svg>
