<?xml version="1.0" encoding="utf-8"?>
<!-- Generator: Adobe Illustrator 23.0.6, SVG Export Plug-In . SVG Version: 6.00 Build 0)  -->
<svg version="1.1" xmlns="http://www.w3.org/2000/svg" xmlns:xlink="http://www.w3.org/1999/xlink" x="0px" y="0px"
	 viewBox="0 0 500 500" style="enable-background:new 0 0 500 500;" xml:space="preserve">
<style type="text/css">
	.st0{fill:#FFFFFF;stroke:#FFFFFF;stroke-width:10;stroke-miterlimit:10;}
	.st1{fill:#808080;}
	.st2{fill:#F25238;}
	.st3{fill:#BF321B;}
	.st4{fill:#FFA99C;}
</style>
<g id="border">
	<path class="st0" d="M411.8,374.9h-7.4V192.7h0C403,118.5,334.4,58.7,250,58.7S97,118.5,95.7,192.7h0v182.2h-7.4l-7,66.4h337.7
		L411.8,374.9z"/>
</g>
<g id="object" xmlns:cc="http://creativecommons.org/ns#" xmlns:dc="http://purl.org/dc/elements/1.1/" xmlns:inkscape="http://www.inkscape.org/namespaces/inkscape" xmlns:rdf="http://www.w3.org/1999/02/22-rdf-syntax-ns#" xmlns:sodipodi="http://sodipodi.sourceforge.net/DTD/sodipodi-0.dtd" xmlns:svg="http://www.w3.org/2000/svg">
	<g>
		<polygon class="st1" points="418.9,441.3 81.1,441.3 88.2,374.9 411.8,374.9 		"/>
		<path class="st2" d="M404.3,192.7C403,118.5,334.4,58.7,250,58.7S97,118.5,95.7,192.7h0v182.2h308.8L404.3,192.7L404.3,192.7z"/>
		<path class="st3" d="M362.6,222.9c-1-61.9-51-111.9-112.6-111.9S138.4,161,137.4,222.9h0v152h225.2L362.6,222.9L362.6,222.9z"/>
		<path class="st4" d="M319.2,354.6h15.1c4.7,0,8.5-3.8,8.5-8.5V215.9c0-4.7-3.8-8.5-8.5-8.5h-15.1c-4.7,0-8.5,3.8-8.5,8.5v130.2
			C310.7,350.8,314.5,354.6,319.2,354.6z"/>
	</g>
</g>
</svg>
