<?xml version="1.0" encoding="utf-8"?>
<!-- Generator: Adobe Illustrator 23.0.6, SVG Export Plug-In . SVG Version: 6.00 Build 0)  -->
<svg version="1.1" xmlns="http://www.w3.org/2000/svg" xmlns:xlink="http://www.w3.org/1999/xlink" x="0px" y="0px"
	 viewBox="0 0 500 500" style="enable-background:new 0 0 500 500;" xml:space="preserve">
<style type="text/css">
	.st0{fill:#FFFFFF;stroke:#FFFFFF;stroke-width:10;stroke-miterlimit:10;}
	.st1{fill:#343434;}
	.st2{fill:#8ECDFC;}
	.st3{fill:#FFFFFF;}
	.st4{fill:#A8F1E5;}
</style>
<g id="border">
	<path class="st0" d="M416.438,160.92h-42.005l27.765-34.739c5.847-7.361,7.429-15.822,3.508-18.986
		c-3.921-3.165-11.832,0.275-17.748,7.635l-36.816,46.09H83.562c-14.721,0-26.553,11.901-26.553,26.622V367.36
		c0,14.79,11.832,26.622,26.553,26.622h332.876c14.721,0,26.553-11.832,26.553-26.622V187.543
		C442.991,172.821,431.159,160.92,416.438,160.92z"/>
</g>
<g id="object" xmlns:cc="http://creativecommons.org/ns#" xmlns:dc="http://purl.org/dc/elements/1.1/" xmlns:inkscape="http://www.inkscape.org/namespaces/inkscape" xmlns:rdf="http://www.w3.org/1999/02/22-rdf-syntax-ns#" xmlns:sodipodi="http://sodipodi.sourceforge.net/DTD/sodipodi-0.dtd" xmlns:svg="http://www.w3.org/2000/svg">
	<g>
		<path class="st1" d="M442.991,187.543V367.36c0,14.79-11.832,26.622-26.553,26.622H83.562c-14.721,0-26.553-11.832-26.553-26.622
			V187.543c0-14.721,11.832-26.622,26.553-26.622h332.876C431.159,160.92,442.991,172.821,442.991,187.543L442.991,187.543z"/>
		<path class="st2" d="M400.066,194.422v164.34c0,12.657-10.181,22.838-22.838,22.838H91.404c-12.657,0-22.907-10.181-22.907-22.838
			v-164.34c0-12.657,10.25-22.839,22.907-22.839h285.823C389.885,171.583,400.066,181.764,400.066,194.422L400.066,194.422z"/>
		<path class="st3" d="M420.428,284.193c-3.302,0-5.985-2.683-5.985-6.122c0-3.371,2.683-6.054,5.985-6.054
			c3.233,0,5.916,2.683,5.916,6.054C426.344,281.51,423.661,284.193,420.428,284.193L420.428,284.193z"/>
		<path class="st4" d="M91.404,171.583c-2.476,0-4.884,0.413-7.085,1.101L382.593,380.98c10.043-2.407,17.473-11.419,17.473-22.219
			v-164.34c0-12.657-10.181-22.839-22.838-22.839H91.404z"/>
		<path class="st1" d="M405.707,107.195c-3.921-3.165-11.832,0.275-17.748,7.635L269.158,263.556
			c-4.54,5.641-6.535,11.969-5.434,16.028c-0.275,0.275-0.482,0.619-0.757,0.894c-2.476,3.027-3.164,6.535-1.651,7.705
			c1.513,1.238,4.747-0.207,7.154-3.302c0.344-0.344,0.619-0.757,0.826-1.169c4.196,0,9.699-3.302,14.033-8.805l118.87-148.724
			C408.046,118.821,409.628,110.36,405.707,107.195L405.707,107.195z"/>
	</g>
</g>
</svg>
