<?xml version="1.0" encoding="utf-8"?>
<!-- Generator: Adobe Illustrator 23.0.6, SVG Export Plug-In . SVG Version: 6.00 Build 0)  -->
<svg version="1.1" xmlns="http://www.w3.org/2000/svg" xmlns:xlink="http://www.w3.org/1999/xlink" x="0px" y="0px"
	 viewBox="0 0 500 500" style="enable-background:new 0 0 500 500;" xml:space="preserve">
<style type="text/css">
	.st0{fill:#FFFFFF;fill-opacity:0.5097;stroke:#FFFFFF;stroke-width:10;stroke-miterlimit:10;}
	.st1{fill:#4E4E4E;}
	.st2{fill:#383838;}
	.st3{fill:#272727;}
	.st4{fill:#393939;}
	.st5{fill:#C6C6C6;}
	.st6{fill:#5E5E5E;}
	.st7{fill:#808080;fill-opacity:0.5097;}
</style>
<g id="border">
	<polygon class="st0" points="448.955,190.18 448.955,190.18 286.261,186.525 55.699,240.948 61.382,276.779 172.776,321.707 
		455.273,230.013 	"/>
</g>
<g id="object" xmlns:cc="http://creativecommons.org/ns#" xmlns:dc="http://purl.org/dc/elements/1.1/" xmlns:inkscape="http://www.inkscape.org/namespaces/inkscape" xmlns:rdf="http://www.w3.org/1999/02/22-rdf-syntax-ns#" xmlns:sodipodi="http://sodipodi.sourceforge.net/DTD/sodipodi-0.dtd" xmlns:svg="http://www.w3.org/2000/svg">
	<g>
		<path inkscape:connector-curvature="0" class="st1" d="M55.699,240.948l108.865,28.978l284.392-79.745l-162.695-3.655
			L55.699,240.948z"/>
		<path inkscape:connector-curvature="0" class="st2" d="M164.564,269.926l8.212,51.781l282.497-91.694l-6.317-39.833
			L164.564,269.926z"/>
		<path inkscape:connector-curvature="0" class="st3" d="M55.699,240.948l108.865,28.978l8.212,51.781L61.381,276.779
			L55.699,240.948z"/>
		<path inkscape:connector-curvature="0" class="st4" d="M327.557,199.893c1.004,4.916-21.25,13.637-49.707,19.478c0,0,0,0,0,0
			c-28.457,5.841-52.34,6.591-53.344,1.674c0,0,0,0,0,0c-1.004-4.916,21.25-13.637,49.707-19.478c0,0,0,0,0,0
			C302.67,195.726,326.553,194.977,327.557,199.893L327.557,199.893z"/>
		<path inkscape:connector-curvature="0" class="st5" d="M297.766,206.008c0.424,2.074-8.964,5.752-20.968,8.216
			c-12.004,2.464-22.078,2.78-22.502,0.706l0,0c-0.424-2.074,8.964-5.752,20.968-8.216
			C287.268,204.25,297.343,203.934,297.766,206.008L297.766,206.008z"/>
		<path inkscape:connector-curvature="0" class="st6" d="M287.666,208.081c0.227,1.11-4.798,3.079-11.223,4.398c0,0,0,0,0,0
			c-6.425,1.319-11.818,1.488-12.045,0.378l0,0c-0.227-1.11,4.798-3.079,11.223-4.398c0,0,0,0,0,0
			C282.046,207.14,287.439,206.971,287.666,208.081L287.666,208.081z"/>
		<path inkscape:connector-curvature="0" class="st7" d="M188.393,219.58l50.499,13.442l131.92-36.991l-75.469-1.696L188.393,219.58
			z"/>
	</g>
</g>
</svg>
