<?xml version="1.0" encoding="utf-8"?>
<!-- Generator: Adobe Illustrator 23.0.6, SVG Export Plug-In . SVG Version: 6.00 Build 0)  -->
<svg version="1.1" xmlns="http://www.w3.org/2000/svg" xmlns:xlink="http://www.w3.org/1999/xlink" x="0px" y="0px"
	 viewBox="0 0 500 500" style="enable-background:new 0 0 500 500;" xml:space="preserve">
<style type="text/css">
	.st0{fill:#FFFFFF;stroke:#FFFFFF;stroke-width:10;stroke-miterlimit:10;}
	.st1{fill:#0D0D0D;}
	.st2{fill:#717171;}
</style>
<g id="border">
	<rect x="64.797" y="101.582" class="st0" width="121.666" height="296.836"/>
	<rect x="189.167" y="101.582" class="st0" width="121.666" height="296.836"/>
	<rect x="313.537" y="101.582" class="st0" width="121.666" height="296.836"/>
</g>
<g id="object" xmlns:cc="http://creativecommons.org/ns#" xmlns:dc="http://purl.org/dc/elements/1.1/" xmlns:inkscape="http://www.inkscape.org/namespaces/inkscape" xmlns:rdf="http://www.w3.org/1999/02/22-rdf-syntax-ns#" xmlns:sodipodi="http://sodipodi.sourceforge.net/DTD/sodipodi-0.dtd" xmlns:svg="http://www.w3.org/2000/svg">
	<g>
		<rect x="64.797" y="101.582" class="st1" width="121.666" height="296.836"/>
		<rect x="78.746" y="340.806" class="st2" width="92.303" height="5.769"/>
		<rect x="78.746" y="351.128" class="st2" width="92.303" height="5.769"/>
		<rect x="78.746" y="361.451" class="st2" width="92.303" height="5.769"/>
		<rect x="78.746" y="309.838" class="st2" width="92.303" height="5.769"/>
		<rect x="78.746" y="320.161" class="st2" width="92.303" height="5.769"/>
		<rect x="78.746" y="330.483" class="st2" width="92.303" height="5.769"/>
		<rect x="88.289" y="111.843" class="st2" width="17.59" height="85.753"/>
		<rect x="115.83" y="111.843" class="st2" width="17.59" height="85.753"/>
		<rect x="143.37" y="111.843" class="st2" width="17.59" height="85.753"/>
		<rect x="189.167" y="101.582" class="st1" width="121.666" height="296.836"/>
		<rect x="203.116" y="340.806" class="st2" width="92.303" height="5.769"/>
		<rect x="203.116" y="351.128" class="st2" width="92.303" height="5.769"/>
		<rect x="203.116" y="361.451" class="st2" width="92.303" height="5.769"/>
		<rect x="203.116" y="309.838" class="st2" width="92.303" height="5.769"/>
		<rect x="203.116" y="320.161" class="st2" width="92.303" height="5.769"/>
		<rect x="203.116" y="330.483" class="st2" width="92.303" height="5.769"/>
		<rect x="212.659" y="111.843" class="st2" width="17.59" height="85.753"/>
		<rect x="240.199" y="111.843" class="st2" width="17.59" height="85.753"/>
		<rect x="267.74" y="111.843" class="st2" width="17.59" height="85.753"/>
		<rect x="313.537" y="101.582" class="st1" width="121.666" height="296.836"/>
		<rect x="327.485" y="340.806" class="st2" width="92.303" height="5.769"/>
		<rect x="327.485" y="351.128" class="st2" width="92.303" height="5.769"/>
		<rect x="327.485" y="361.451" class="st2" width="92.303" height="5.769"/>
		<rect x="327.485" y="309.838" class="st2" width="92.303" height="5.769"/>
		<rect x="327.485" y="320.161" class="st2" width="92.303" height="5.769"/>
		<rect x="327.485" y="330.483" class="st2" width="92.303" height="5.769"/>
		<rect x="337.028" y="111.843" class="st2" width="17.59" height="85.753"/>
		<rect x="364.569" y="111.843" class="st2" width="17.59" height="85.753"/>
		<rect x="392.109" y="111.843" class="st2" width="17.59" height="85.753"/>
	</g>
</g>
</svg>
