<?xml version="1.0" encoding="utf-8"?>
<!-- Generator: Adobe Illustrator 23.0.6, SVG Export Plug-In . SVG Version: 6.00 Build 0)  -->
<svg version="1.1" xmlns="http://www.w3.org/2000/svg" xmlns:xlink="http://www.w3.org/1999/xlink" x="0px" y="0px"
	 viewBox="0 0 500 500" style="enable-background:new 0 0 500 500;" xml:space="preserve">
<style type="text/css">
	.st0{fill:#FFFFFF;stroke:#FFFFFF;stroke-width:10;stroke-miterlimit:10;}
	.st1{fill:#636363;}
	.st2{fill:#EAFFD4;}
	.st3{fill:#79C993;}
	.st4{fill:#A1A1A1;}
</style>
<g id="border">
	<path class="st0" d="M439.699,112.634H60.301c-1.055,0-1.847,0.92-1.847,2.147v270.438c0,1.124,0.791,2.147,1.847,2.147h379.397
		c1.055,0,1.847-1.023,1.847-2.147V114.781C441.545,113.555,440.754,112.634,439.699,112.634z"/>
</g>
<g id="object" xmlns:cc="http://creativecommons.org/ns#" xmlns:dc="http://purl.org/dc/elements/1.1/" xmlns:inkscape="http://www.inkscape.org/namespaces/inkscape" xmlns:rdf="http://www.w3.org/1999/02/22-rdf-syntax-ns#" xmlns:sodipodi="http://sodipodi.sourceforge.net/DTD/sodipodi-0.dtd" xmlns:svg="http://www.w3.org/2000/svg">
	<g>
		<path class="st1" d="M60.301,112.634h379.397c1.055,0,1.847,0.92,1.847,2.147v270.438c0,1.124-0.792,2.147-1.847,2.147H60.301
			c-1.055,0-1.847-1.023-1.847-2.147V114.781C58.455,113.555,59.246,112.634,60.301,112.634L60.301,112.634z"/>
		<path class="st2" d="M90.027,131.103h319.946c0.879,0,1.495,0.704,1.495,1.582v196.119c0,0.88-0.616,1.583-1.495,1.583H90.027
			c-0.879,0-1.583-0.704-1.583-1.583V132.686C88.444,131.807,89.148,131.103,90.027,131.103L90.027,131.103z"/>
		<g>
			<circle class="st3" cx="250.007" cy="285.864" r="20.541"/>
			<path class="st3" d="M249.956,193.237c-31.779,0.017-59.807,16.044-76.478,40.445l15.248,13.489
				c12.837-20.287,35.451-33.772,61.23-33.79c25.779,0.018,48.393,13.504,61.23,33.79l15.248-13.489
				C309.763,209.281,281.735,193.254,249.956,193.237z"/>
			<path class="st3" d="M249.956,152.616c-43.886,0.017-82.802,21.256-107.069,54.005l15.669,13.861
				c20.391-28.469,53.716-47.043,91.401-47.06c37.685,0.017,71.01,18.591,91.401,47.06l15.669-13.861
				C332.758,173.872,293.842,152.633,249.956,152.616z"/>
			<path class="st3" d="M249.956,230.946c-20.551,0.019-38.448,11.333-47.849,28.061l11.957,10.577
				c6.194-13.653,19.927-23.159,35.892-23.179c15.965,0.02,29.697,9.526,35.892,23.179l11.957-10.577
				C288.404,242.279,270.507,230.965,249.956,230.946z"/>
		</g>
		<path class="st4" d="M409.507,374.057h-24.849c-3.735,0-6.764-3.028-6.764-6.764v-6.3c0-3.735,3.028-6.764,6.764-6.764h24.849
			c3.735,0,6.764,3.028,6.764,6.764v6.3C416.27,371.028,413.242,374.057,409.507,374.057z"/>
		<path class="st4" d="M354.821,374.057h-24.849c-3.735,0-6.764-3.028-6.764-6.764v-6.3c0-3.735,3.028-6.764,6.764-6.764h24.849
			c3.735,0,6.764,3.028,6.764,6.764v6.3C361.584,371.028,358.556,374.057,354.821,374.057z"/>
	</g>
</g>
</svg>
