<?xml version="1.0" encoding="utf-8"?>
<!-- Generator: Adobe Illustrator 23.0.6, SVG Export Plug-In . SVG Version: 6.00 Build 0)  -->
<svg version="1.1" xmlns="http://www.w3.org/2000/svg" xmlns:xlink="http://www.w3.org/1999/xlink" x="0px" y="0px"
	 viewBox="0 0 500 500" style="enable-background:new 0 0 500 500;" xml:space="preserve">
<style type="text/css">
	.st0{fill:#FFFFFF;stroke:#FFFFFF;stroke-width:10;stroke-miterlimit:10;}
	.st1{fill:#5C5C5C;}
	.st2{fill:#3D3D3D;}
	.st3{fill:#7A7A7A;}
	.st4{fill:#B5B5B5;}
	.st5{fill:#D4D4D4;}
	.st6{fill:#79B5B5;}
	.st7{fill:#969696;}
</style>
<g id="border">
	<path class="st0" d="M459.4,308.6V180.1h-1.1h-95.7v-12.7H233.3v12.7H41.6h-1.1v8.2h1.1v120.3h48.9c-0.1,0.1-0.2,0.1-0.2,0.2H41.6
		v7.6H85c-0.3,1-0.4,2.1-0.4,3.2c0,7.2,5.8,13,13,13s13-5.8,13-13c0-1.1-0.1-2.2-0.4-3.2h47.8c-0.3,1-0.4,2.1-0.4,3.2
		c0,7.2,5.8,13,13,13c7.2,0,13-5.8,13-13c0-1.1-0.1-2.2-0.4-3.2h134.3c-0.3,1-0.4,2.1-0.4,3.2c0,7.2,5.8,13,13,13s13-5.8,13-13
		c0-1.1-0.1-2.2-0.4-3.2h47.8c-0.3,1-0.4,2.1-0.4,3.2c0,7.2,5.8,13,13,13c7.2,0,13-5.8,13-13c0-1.1-0.1-2.2-0.4-3.2h43.4v-7.6h-48.6
		c-0.1-0.1-0.2-0.1-0.2-0.2H459.4z M323.2,308.6c-0.1,0.1-0.2,0.1-0.2,0.2H178.2c-0.1-0.1-0.2-0.1-0.2-0.2H323.2z M104.8,308.6h58.8
		c-0.1,0.1-0.2,0.1-0.2,0.2h-58.3C105,308.7,104.9,308.7,104.8,308.6z M396,308.8h-58.3c-0.1-0.1-0.2-0.1-0.2-0.2h58.8
		C396.2,308.7,396.1,308.7,396,308.8z"/>
</g>
<g id="object" xmlns:cc="http://creativecommons.org/ns#" xmlns:dc="http://purl.org/dc/elements/1.1/" xmlns:inkscape="http://www.inkscape.org/namespaces/inkscape" xmlns:rdf="http://www.w3.org/1999/02/22-rdf-syntax-ns#" xmlns:sodipodi="http://sodipodi.sourceforge.net/DTD/sodipodi-0.dtd" xmlns:svg="http://www.w3.org/2000/svg">
	<g>
		<rect x="41.6" y="308.8" class="st1" width="417.8" height="7.6"/>
		<g>
			<circle class="st2" cx="170.8" cy="319.5" r="13"/>
			<circle class="st3" cx="170.8" cy="319.5" r="6.5"/>
		</g>
		<g>
			<circle class="st2" cx="97.7" cy="319.5" r="13"/>
			<circle class="st3" cx="97.7" cy="319.5" r="6.5"/>
		</g>
		<g>
			<circle class="st2" cx="403.4" cy="319.5" r="13"/>
			<circle class="st3" cx="403.4" cy="319.5" r="6.5"/>
		</g>
		<g>
			<circle class="st2" cx="330.3" cy="319.5" r="13"/>
			<circle class="st3" cx="330.3" cy="319.5" r="6.5"/>
		</g>
		<rect x="41.6" y="180.1" class="st4" width="417.8" height="128.5"/>
		<rect x="233.3" y="167.5" class="st5" width="129.3" height="12.7"/>
		<rect x="123.6" y="204.5" class="st6" width="83.3" height="41.3"/>
		<g>
			<rect x="57.7" y="199.5" class="st7" width="26" height="99.2"/>
			<rect x="62.9" y="204.5" class="st6" width="16.9" height="41.3"/>
			<rect x="86.4" y="199.5" class="st7" width="26" height="99.2"/>
			<rect x="90.2" y="204.5" class="st6" width="16.9" height="41.3"/>
		</g>
		<rect x="40.6" y="180.1" class="st7" width="417.8" height="8.2"/>
		<g>
			<rect x="219" y="199.5" class="st7" width="26" height="99.2"/>
			<rect x="224.2" y="204.5" class="st6" width="16.9" height="41.3"/>
			<rect x="247.6" y="199.5" class="st7" width="26" height="99.2"/>
			<rect x="251.5" y="204.5" class="st6" width="16.9" height="41.3"/>
		</g>
		<rect x="284.9" y="204.5" class="st6" width="83.3" height="41.3"/>
		<g>
			<rect x="380.2" y="199.5" class="st7" width="26" height="99.2"/>
			<rect x="385.5" y="204.5" class="st6" width="16.9" height="41.3"/>
			<rect x="408.9" y="199.5" class="st7" width="26" height="99.2"/>
			<rect x="412.8" y="204.5" class="st6" width="16.9" height="41.3"/>
		</g>
	</g>
</g>
</svg>
