<?xml version="1.0" encoding="utf-8"?>
<!-- Generator: Adobe Illustrator 23.0.6, SVG Export Plug-In . SVG Version: 6.00 Build 0)  -->
<svg version="1.1" xmlns="http://www.w3.org/2000/svg" xmlns:xlink="http://www.w3.org/1999/xlink" x="0px" y="0px"
	 viewBox="0 0 500 500" style="enable-background:new 0 0 500 500;" xml:space="preserve">
<style type="text/css">
	.st0{fill:#FFFFFF;stroke:#FFFFFF;stroke-width:10;stroke-miterlimit:10;}
	.st1{fill:#5C5C5C;}
	.st2{fill:#CFCFCF;}
	.st3{fill:#3D3D3D;}
	.st4{fill:#7A7A7A;}
	.st5{fill:#A1A1A1;}
	.st6{fill:#79B5B5;stroke:#405E5E;stroke-width:3;stroke-miterlimit:10;}
</style>
<g id="border">
	<path class="st0" d="M460.7,171H114.5v17.7H59.2l-19.9,60.8v59.7h34.9v0l0.1,0l1.1-3.5v8.6h0.4c1.7,8.4,9.1,14.8,18.1,14.8
		c8.9,0,16.4-6.3,18.1-14.8h37.9c1.7,8.4,9.1,14.8,18.1,14.8c8.9,0,16.4-6.3,18.1-14.8h143.8c1.7,8.4,9.1,14.8,18.1,14.8
		c8.9,0,16.4-6.3,18.1-14.8h20.8c1.7,8.4,9.1,14.8,18.1,14.8s16.4-6.3,18.1-14.8h19.8V302h18.1V171z"/>
</g>
<g id="object" xmlns:cc="http://creativecommons.org/ns#" xmlns:dc="http://purl.org/dc/elements/1.1/" xmlns:inkscape="http://www.inkscape.org/namespaces/inkscape" xmlns:rdf="http://www.w3.org/1999/02/22-rdf-syntax-ns#" xmlns:sodipodi="http://sodipodi.sourceforge.net/DTD/sodipodi-0.dtd" xmlns:svg="http://www.w3.org/2000/svg">
	<g>
		<polygon class="st1" points="114.5,302 114.5,285.6 81.9,285.6 75.4,305.7 75.4,314.3 442.6,314.3 442.6,302 		"/>
		<rect x="114.5" y="171" class="st2" width="346.2" height="131"/>
		<circle class="st3" cx="167.9" cy="310.6" r="18.4"/>
		<circle class="st4" cx="167.9" cy="310.6" r="9.1"/>
		<circle class="st3" cx="347.8" cy="310.6" r="18.4"/>
		<circle class="st4" cx="347.8" cy="310.6" r="9.1"/>
		<circle class="st3" cx="93.8" cy="310.6" r="18.4"/>
		<circle class="st4" cx="93.8" cy="310.6" r="9.1"/>
		<circle class="st3" cx="404.8" cy="310.6" r="18.4"/>
		<circle class="st4" cx="404.8" cy="310.6" r="9.1"/>
		<polygon class="st5" points="114.5,188.7 59.2,188.7 39.3,249.5 39.3,309.2 74.2,309.2 74.2,309.1 74.3,309.2 81.9,285.6 
			114.5,285.6 		"/>
		<polygon class="st6" points="100.1,206 64.3,206 64.3,206.7 53.4,239.1 64.8,236.2 100.1,236.2 		"/>
	</g>
</g>
</svg>
